<?xml version="1.0" encoding="utf-8"?>
<!-- Generator: Adobe Illustrator 22.0.1, SVG Export Plug-In . SVG Version: 6.00 Build 0)  -->
<svg version="1.1" id="Capa_1" xmlns="http://www.w3.org/2000/svg" xmlns:xlink="http://www.w3.org/1999/xlink" x="0px" y="0px"
	 viewBox="0 0 131.1 70.4" style="enable-background:new 0 0 131.1 70.4;" xml:space="preserve">
<style type="text/css">
	.st0{fill:none;stroke:#1E1E1C;stroke-width:0.3;stroke-miterlimit:10;stroke-dasharray:1,1;}
	.st1{fill:none;stroke:#1E1E1C;stroke-width:0.3;stroke-miterlimit:10;}
	.st2{font-family:'Roboto-Regular';}
	.st3{font-size:6px;}
	.st4{fill:#8F8F24;}
	.st5{fill:#838383;}
	.st6{font-size:5px;}
	.st7{fill:#B5B5B5;}
	.st8{fill:#5E6200;}
</style>
<title>comparacion_s</title>
<g>
	<line class="st0" x1="0" y1="42.8" x2="131.1" y2="42.8"/>
	<line class="st0" x1="0.3" y1="22.5" x2="131.1" y2="22.5"/>
	<line class="st0" x1="0.3" y1="5" x2="131.1" y2="5"/>
	<line class="st1" x1="0.3" y1="61.8" x2="131" y2="61.8"/>
	<text transform="matrix(1 0 0 1 100.02 68.87)" class="st2 st3">Caballo</text>
	<text transform="matrix(1 0 0 1 13.59 68.87)" class="st2 st3">Humano</text>
	<text transform="matrix(1 0 0 1 58.86 68.87)" class="st4 st2 st3">Tapir</text>
	<text transform="matrix(1 0 0 1 0.81 61.13)" class="st5 st2 st6">0m</text>
	<text transform="matrix(1 0 0 1 0.81 42.18)" class="st5 st2 st6">1m</text>
	<text transform="matrix(1 0 0 1 0.81 21.55)" class="st5 st2 st6">1,5m</text>
	<text transform="matrix(1 0 0 1 0.81 4.3)" class="st5 st2 st6">2m</text>
	<path class="st7" d="M67.8,57.2l0.1,0.1l0.1-0.1c0.7-0.8,1.3-1.6,1.8-2.6c-0.2,1.1-0.6,2.1-1.2,3l0,0v0.1l0,0
		c0.4,0.1,0.8,0.2,1.3,0.2c0.2,0,0.4,0,0.7,0h0.2l0,0c1.3-0.7,1.6-2.5,1.7-3.8c0.2,1,0.2,2.1-0.1,3.1v0.1l0.1,0.1h0.1
		c0.4-0.2,0.7-0.4,1.1-0.7c0,0.1,0,0.2,0,0.3c-0.3,1-0.1,1.2,0.4,1.7c0.1,0.1,0.2,0.2,0.3,0.4c0.3,0.4,0.3,0.5,0.3,0.6
		s0,0.2,0.2,0.4c0,0,0.1,0.1,0.2,0.1c0.5,0.6,0.1,1.9,0,2v0.1h0.1c0.6,0.3,1.2,0.4,1.8,0.3c0.6,0,1.2-0.1,1.7-0.2h0.1l-0.2-0.3
		l-0.3-0.5l0,0c-0.2-0.3-0.6-1.1-0.9-1.4c0,0,0,0,0-0.1C77.1,60,77.1,60,77,60s-0.7-0.7-0.6-1.1c0.2-0.7,0.1-1.5-0.2-2.1
		c-0.3-1.1-0.4-2.2-0.3-3.3c0-1,0.1-2.1,0.3-3.1l0.1-0.1c0.6-0.6,0.9-1.4,0.9-2.3c0-0.2,0-0.3,0.2-0.4c0,0.1,0.1,0.2,0.1,0.3
		c1,2.4,1.5,4.9,1.6,7.5c-0.2,0.7,0.1,1.4,0.6,1.8l0.4,0.4c0.4,0.4,0.4,0.6,0.4,0.7c0,0.1,0,0.1,0,0.2l0,0l0,0c0,0,0,0.1,0,0.1
		c0.7,0.7,0.3,2.7,0.3,2.7v0.1h0.1c0.6,0.4,1.4,0.6,2.1,0.6c0.7,0,1.3-0.1,2-0.2h0.2l-0.3-0.4l-0.5-0.8l0,0
		c-0.3-0.4-0.9-1.3-1.2-1.8l0,0h-0.1L83,58.5c0-0.1-0.1-0.1-0.2-0.2c-0.3-0.3-0.5-0.6-0.6-1c0.1-0.8-0.2-1.7-0.6-2.4
		c-0.4-1.2-0.7-2.5-0.8-3.8c-0.2-1.2-0.3-2.4-0.2-3.5l0.1-0.1c0.5-0.7,0.7-1.7,0.5-2.6c-0.1-0.4,0.2-0.6,0.6-0.9l0,0l0,0
		c0.7-0.5,1.9-1.5,2.6-4.7c0.1-0.4,0.2-0.8,0.3-1.3c0.1-0.3,0.1-0.6,0.2-0.9s0.1-0.5,0.2-0.8l0.1,0l0,0l0,0c0.2,0,0.4,0,0.5,0h0.2
		h0.1h0.1h0.1h0.1l0,0h0.1c0.2,0.1,0.4,0.2,0.5,0.3l0,0l0.2,0.1h0.1l0.2,0.1l0.1,0l0.3,0.2l0.5,0.3l0.3,0.2l0.1,0.1l0.2,0.2l0.1,0.1
		h0.1l0.5,0.3l0.2,0.1h0.1l0.3,0.2l0.2,0.1l0.2,0.1l0,0l0.2,0.1L91,39l0.2,0.1c0.1,0.1,0.2,0.1,0.4,0.2l0.2,0.1l0.2,0.1l0.3,0.1l0,0
		c0.1,0,0.2,0.1,0.3,0.1s0.2,0.1,0.3,0.1l0.4,0.1c3.2,0.7,6.4,1,9.7,1l0,0c0,0.1,0,0.2,0,0.4c0,0.3-0.1,0.6-0.2,0.9
		c-0.2,1.1-0.3,2.2-0.2,3.3c0.1,0.8,0,1.6-0.2,2.4l0,0c-0.4,0.5-0.4,1.2-0.2,1.8v0.2c-0.1,1.8-0.4,3.7-1,5.4c-0.4,1-0.7,2.1,0,2.4
		s1.3,0.9,1.2,1.3v0.1h0.1l0,0c0,0,0,0,0,0c0.5,0.5-0.1,2-0.1,2V61h0.1c0.2,0.1,0.5,0.2,0.7,0.2l0,0h0.1h0.2h0.8
		c0.6,0,1.2-0.1,1.7-0.2h0.1l-0.1-0.3l-0.2-0.5v0c-0.2-0.3-0.5-1-0.7-1.4c0,0,0,0,0-0.1v-0.1l0,0l-0.1-0.1l0,0c0,0-1.2-0.8-1.1-1.6
		c0-0.2,0.1-0.5,0.2-0.7c0.1-0.1,0.1-0.2,0.1-0.4c0,0,0.1,0,0.1,0c-0.1-0.1-0.1-0.2-0.1-0.4c0-0.1,0-0.2,0-0.5
		c0.1-1.3,0.3-2.6,0.7-3.9c0.2-0.4,0.4-0.8,0.5-1.3c0.1-0.3,0.2-0.7,0.3-1l0,0c0.2-0.7,0.5-2.1,0.8-3.3l0.1,0.8
		c0.2,0.8,0.2,1.6,0.1,2.5c-0.3,0.6-0.3,1.3,0,1.9l0.1,0.2c0.2,1.8,0,3.6-0.4,5.4c-0.3,1-0.5,2.1,0.3,2.4s1.4,1,1.4,1.3v0.1h0.1h0.1
		l0,0c0.6,0.5,0.1,2,0.1,2v0.1h0.1c0.6,0.3,1.2,0.4,1.8,0.3c0.6,0,1.2-0.1,1.7-0.2h0.1l-0.2-0.3l-0.3-0.5l0,0
		c-0.2-0.3-0.6-1.1-0.9-1.4v-0.1v0l0,0h-0.1c-0.1-0.1-0.1-0.1-0.1-0.1l0,0c-0.2-0.2-1.3-0.8-1.3-1.5c0-0.2,0-0.5,0.1-0.7
		c0-0.1,0-0.3,0-0.4c0-0.2-0.1-0.3-0.2-0.4c-0.1-0.1-0.2-0.2-0.2-0.4c0-0.1,0-0.2,0-0.5c-0.1-1.3,0-2.6,0.2-3.9
		c0.3-0.8,0.4-1.5,0.5-2.3l0,0c0.1-1.8,0.5-3.6,1-5.3c0.6-1.3,1-2.7,1.2-4.2c0-0.2,0.1-0.4,0.1-0.6v-0.2l0,0l0,0
		c1.2-0.6,1.8-1.5,2.4-3.6c0.1-0.3,0.3-0.5,0.3-0.8l0,0c0.2-0.6,0.3-1.3,0.2-2c0-0.3,0-0.5-0.1-0.7c0,0,0,0,0-0.1v-0.1v-0.3l0,0
		c0-0.1,0-0.1,0-0.2c0-1.1,0.4-2.1,1-2.9c0.6-1,1.1-2,1.5-3c0.4-1.2,1.1-2.3,1.9-3.2l0.2-0.1c0.2-0.1,0.4-0.3,0.7-0.4
		c0.3-0.1,0.7-0.2,1-0.1c0.1,0.1,0.1,0.2,0.2,0.3c0.1,0.1,0.2,0.2,0.2,0.3c0.8,0.5,1.7,0.8,2.7,0.9h0.4c0.2,0.1,2.5,1,2.8,1.3
		c0.1,0.1,0.1,0.2,0.2,0.4s0.1,0.7,0.9,0.7h0.6c0.6,0,0.8,0,0.9-0.1l0,0l0,0c0,0,0,0,0-0.1c0.2,0,0.3-0.1,0.4-0.1
		c0.2-0.1,0.3-0.2,0.4-0.3l0,0l0,0c0.1-0.1,0.2-0.3,0.2-0.5c0,0,0-0.1,0-0.1v-0.1c0-0.2,0.1-0.4,0.2-0.6c0.1-0.2,0.1-0.3,0.1-0.5
		c-0.1-0.5-0.3-0.9-0.5-1.3c-0.4-0.8-0.9-1.5-1.4-2.2c-0.7-0.8-1.3-1.7-1.8-2.6c-0.2-0.3-0.4-0.7-0.6-1c-0.1-0.1-0.3-0.4-0.5-0.6
		l-0.2-0.2l-0.2-0.3c-0.2-0.2-0.4-0.5-0.6-0.8l0,0l0.1,0.1v-0.1c-0.1-0.4-0.3-0.7-0.6-1l0.3,0.2l0.3,0.2l-0.2-0.3
		c-0.2-0.3-0.4-0.6-0.8-0.8c0.1-0.7,0.1-1.4-0.2-2l-0.1-0.3v0.4c-0.1,0.5-0.3,1-0.8,1.4l-0.2,0.1h-0.1c0.1-0.7,0.1-1.4-0.2-2.1
		l-0.1-0.3v0.4c-0.1,0.5-0.3,1-0.8,1.4c-0.2,0.2-0.4,0.4-0.6,0.6c-1.4-0.1-2.8,0.2-3.9,1c-0.1,0.1-0.3,0.2-0.4,0.2
		c-0.6,0.1-1.2,0.3-1.6,0.7c-0.1,0.1-0.2,0.2-0.4,0.3c-0.5,0.5-1.1,0.9-1.7,1.1c-0.9,0.3-1.7,0.8-2.4,1.5l-0.1,0
		c-0.1,0.1-0.2,0.2-0.4,0.3c-0.5,0.3-1,0.7-1.5,1.2c-0.2,0.3-0.4,0.5-0.5,0.6s-0.3,0.5-0.6,0.5c-0.4,0.1-0.7,0.3-0.9,0.7
		c-0.1,0.4-0.4,0.7-0.8,0.8l-0.2,0.1l0,0c-0.1,0.1-0.3,0.1-0.5,0.1l-0.8,0.2l-0.3,0.1c-1.3,0.2-2.6,0.6-3.8,1.1
		c-0.6,0.2-1.1,0.5-1.6,0.8l-0.4,0.2c-2.3,1.3-7.7-0.2-10.9-1.1c-0.7-0.2-1.3-0.4-1.7-0.5c-2.3-0.6-4.7-0.6-7,0.1
		c-1.2,0.3-2.4,0.9-3.4,1.6l0,0c-0.3,0.1-3.4,1-4.8,6.2c-0.6,2.8-0.7,5.6-0.5,8.4c0.2,2.8,0.1,5.7-0.6,8.4l-0.1,0.4l0.3-0.3
		c0.5-0.8,0.8-1.7,0.9-2.6c-0.1,2.3-0.3,4.6-0.8,6.8C69.6,53.3,68.9,55.3,67.8,57.2L67.8,57.2z M74.3,43.9c-0.8-3.5-1.3-7-1.4-10.6
		c0.4,1.5,1,3,1.8,4.3c0.3,0.5,0.5,0.9,0.7,1.4c0,0.1,0.1,0.1,0.1,0.2c0.6,1.2,0.4,2.6-0.3,3.7c-0.3,0.5-0.6,0.8-0.8,1.2L74.3,43.9z
		"/>
	<path class="st8" d="M45.1,61c0,0-0.2,1-1,0.1c-0.1-0.2-0.2-0.3-0.2-0.5c-0.2-0.6-0.3-1.2-0.3-1.8c0-0.6-0.3-1.9-0.3-3.5
		s-0.1-1.3,0.5-1.9c0.7-0.6,1.2-1.4,1.6-2.2c-0.8-0.8-1.6-1.5-2.5-2.2c-0.2,0-0.6,0.2-0.5-0.5c-1-1.1-1.6-2.5-1.7-4
		c0,0-0.2-2.1,2.2-4.8c2.3-2.7,5.7-4.2,9.2-4.1c2.2-0.1,4.4,0.3,6.5,1c0.4,0.1,1.9,1,5.1-0.2l0.3,0.1v-0.1l0.2,0.1v-0.1
		c0,0,0.3,0.2,0.3,0.2c0-0.1,0-0.2-0.1-0.2l0.2,0.2l-0.1-0.3l0.1,0.2v-0.2l0.2,0.2V36l0.2,0.2V36l0.2,0.2l0.1-0.3l0.3,0.1v-0.2
		l0.2,0.1v-0.2L66,36v-0.2l0.2,0.2l0.1-0.3l0.2,0.1v-0.2l0.2,0.2v-0.2l0.2,0.2v-0.2l0.2,0.2v-0.2l0.2,0.2l0.1-0.2l0.2,0.2l0.1-0.2
		l0.2,0.2v-0.2l0.1,0.2l0.1-0.2l0.2,0.2l0.1-0.2l0.2,0.2v-0.2l0.1,0.2l0.2-0.2l-0.1,0.2l0.3-0.1L69,35.8l0.4-0.1l-0.2,0.2l0.3-0.2
		L69.4,36l0.3-0.2l0,0.2l0.3-0.1l-0.1,0.2l0.4-0.1l-0.1,0.1h0.5l-0.2,0.1h0.3l-0.1,0.1H71l-0.2,0.2h0.3l-0.1,0.1h0.3l-0.1,0.1h0.3
		l-0.1,0.1h0.3L71.6,37h0.3l-0.2,0.2c0.2,0,0.3-0.1,0.4-0.2c0.1-0.2,0.5-0.9,1.2-0.3c0,0,0.5,0.2,0.2,1.6h0.2l-0.1,0.1h0.3l-0.1,0.1
		h0.2l-0.2,0.1H74l-0.1,0.1h0.2L74,38.8h0.2l-0.1,0.1c0,0,0.1,0,0.2,0.2c0.4,0.7,1,1.4,1.8,1.9c0.7,0.4,1.4,0.8,2,1.4
		c0.3,0.2,0.5,0.4,0.8,0.6c1,0.9,1.6,2.2,1.7,3.6c0,0,0.1,0.6,0,0.7c-0.1,0.3-0.4,0.5-0.7,0.4c0,0,0,0,0,0c-0.1,0-0.2,0-0.3,0
		c-0.2,0.1-0.4,0.1-0.6,0c-0.5,0.2-1,0.2-1.5,0.1c-0.7-0.2-0.5,0.3-2.7,0c-1.1-0.1-2.2-0.4-3.3-0.8l-0.9,0.3c-0.6,0.2-1,0.2-1.2,0.4
		c-0.3,0.5-0.8,0.9-1.3,1.2c-0.7,0.4-1.3,1-1.7,1.7c-0.1,0.2-1.2,3.1-1.6,4.3s-0.5,5,0,5.7s1,0.6,1,0.6s1.1,0.7,0.5,0.7
		c-0.6,0.1-1.3,0.1-1.9,0c0,0,0.1,0.5-0.6,0.3s-0.7-0.3-0.7-0.6c-0.1-0.6-0.2-1.2-0.2-1.8c0-0.8-0.2-0.9-0.2-0.9
		c-0.3,0.6-0.8,1.1-1.3,1.6c-0.6,0.4-1.1,0.4-1.1,0.1c-0.1-0.4,0-0.8,0.4-1c0,0-0.7,0.2-0.8,0.4c-0.3-0.1-0.5-0.5-0.3-0.8
		c0-0.1,0.1-0.1,0.1-0.2c0.4-0.6,0.5-0.5,0.5-0.5s-0.8,0.2-0.5-0.2s1.2-1.4,1.5-1.7c0.3-0.3,0.3-0.8,0.1-1.1c0,0-0.4-0.7-0.7-1
		s-2.3-2.7-2.4-3l-0.6,0.2l-0.2,0.2v-0.1L57.1,52v-0.1L56.6,52l0.1-0.1L56.4,52h-0.5l-0.3,0.1V52c0,0-1.1,0.1-1.9,0h-0.2v0L53,52.1
		V52l-0.4,0.1l0.1-0.2L52.5,52v-0.1L52.4,52v-0.1h-0.2v-0.1h-0.2v-0.1l-0.2,0.1l0.1-0.1l-0.2,0.1l0.1-0.1h-0.2l0-0.1h-0.3l0.2-0.1
		h-0.2c-0.2-0.1-0.3-0.3-0.5-0.3c-0.2,0-0.4-0.1-0.6-0.1c0,0-0.3,0.2-0.3,0.3s0,0.2-0.2,0.2c0.1,0.3,0.1,0.7,0,1c0,0,0,0.3,0.2,1.2
		c0.1,1,0.4,2,0.7,3c0.1,0.7,0.4,1.3,0.7,1.9c0.5,0.9,1.2,1.7,2,2.3c0,0,0.4,0.1,1.1,0.9c-0.3,0.1-0.5,0-0.8-0.1
		c0,0,0.5,0.6,0.2,0.7c-0.4,0.1-0.9,0-1.3-0.2c-0.1-0.1-0.3-0.2-0.4-0.3c0,0-0.2,0.9-0.7,0.8s-0.4-0.4-0.6-0.7
		c-0.2-0.4-0.4-0.7-0.5-1.1c-0.2-0.6-0.6-1.2-1-1.7c-0.4-0.4-0.7-0.9-0.8-1.5c-0.3-0.3-0.5-0.7-0.6-1.1c-0.2-0.8-0.4-1.5-0.7-2.2
		c0,0-1.4,1.4-1.4,2.5s-0.3,2.4,0.5,2.9l1.2,0.9L47.1,61c0,0,0.3,0.5,0.2,0.5c-0.5,0-1.1-0.2-1.6-0.3L45.1,61z"/>
	<path class="st7" d="M31.6,30.7c0-0.2,0.1-0.6,0.1-0.8c0.1-1.1,0-2.1-0.3-3.1c-0.4-1.1-0.2-1.9-0.6-2.7c-0.4-0.8-1.1-1.4-2-1.5
		c-0.4-0.1-0.8-0.3-1.1-0.4c-0.2-0.1-0.5-0.2-0.8-0.2c-0.2-0.1-0.4-0.2-0.5-0.3c-0.4-0.3-0.7-0.8-0.7-1.2c0.2-0.2,0.4-0.4,0.5-0.6
		l0,0c0.1-0.1,0.1-0.2,0.1-0.3c0,0,0,0,0,0s0-0.5,0.2-0.6l0.2-0.1c0.2-0.2,0.2-0.2,0.3-0.5c0-0.1,0.2-0.7,0-0.9s-0.2,0-0.3-0.1
		c0-0.2,0-0.4,0-0.6l0,0l0,0l0,0c0-0.1,0-0.1,0-0.2c0-0.3,0-0.6-0.1-0.9c0.1-0.4,0-0.8-0.3-1.1c-0.2-0.3-0.4-0.5-0.7-0.7
		c-0.3-0.1-0.7-0.2-1-0.2c-0.4-0.1-0.7-0.1-1.1,0c-0.3,0.1-0.6,0.2-0.9,0.3c-0.2,0.1-0.3,0.3-0.4,0.5c0,0.1-0.1,0.2-0.2,0.3
		c-0.1,0.1-0.1,0-0.2,0.1c-0.1,0.5-0.2,1-0.1,1.4l0,0c0,0.1,0,0.2,0,0.3c0,0.3,0,0.5,0,0.8c0,0.1-0.1,0-0.2,0.1s0,0.8,0,0.9
		c0,0.3,0,0.3,0.3,0.5l0.2,0.1c0.1,0.1,0.1,0.4,0.2,0.6c0.1,0.3,0.3,0.7,0.6,0.9c-0.1,0.5-0.3,0.9-0.8,1.2c-0.1,0.1-0.3,0.2-0.5,0.3
		C21.2,22,21,22,20.7,22.1c-0.4,0.2-0.7,0.3-1.1,0.4c-0.9,0.2-1.6,0.7-2,1.5c-0.2,0.9-0.4,1.8-0.6,2.7c-0.3,1-0.4,2.1-0.3,3.1
		c0,0.2,0.1,0.6,0.1,0.8c0,0.5-0.1,1-0.2,1.5c-0.2,1-0.3,2-0.1,2.9c0.2,1,0.2,2.6,0.2,3c0,0.2,0,0.5-0.1,0.7
		c-0.1,0.4-0.1,0.8-0.1,1.2c0.1,0.6,0.2,1.2,0.4,1.8c0.3,0.3,0.7,0.5,1.1,0.7c0.2,0,0.6,0.3,0.7,0.3s0.1-0.4,0-0.5
		c-0.1-0.2-0.3-0.3-0.4-0.4c-0.2-0.1-0.3-0.4-0.4-0.6c0-0.2,0-0.5,0-0.8c0-0.1,0.1-0.4,0.2-0.3s0.1,0.1,0.1,0.4s0.1,1,0.7,0.8
		c0.2-0.1,0.1-0.3,0-0.5c-0.1-0.3-0.2-0.7-0.2-1c-0.1-0.4-0.2-0.7-0.5-1c-0.3-0.4,0.1-1.7,0.4-3c0.2-0.8,0.3-1.6,0.2-2.4
		c-0.1-0.5-0.1-1.1,0-1.6c0.1-0.5,0.4-1.3,0.5-2.1c0.2-0.8,0.3-1.6,0.4-2.4c0.1,1.5,0.6,2.7,0.5,3.9c-0.1,1.5,0.1,1.9,0,2.9
		c-0.1,0.5-0.2,0.6-0.4,1.3c-0.2,0.8-0.3,1.6-0.3,2.4c-0.1,1.7-0.1,1.4-0.1,2.9c-0.1,1.7,0.1,3.4,0.4,5c0.4,1.2,0.5,2.5,0.3,3.7
		c-0.3,1.3-0.2,2.7,0,4c0.4,1.7,1,3.7,1.1,4.8s0.1,1.5-0.1,1.8s-0.8,1-0.8,1.2S20.2,62,21.1,62s1.1,0.1,1.3-0.1c0,0,0.1,0,0.2,0
		c0.1,0.1,0.3,0.1,0.4,0.1c0.2,0,0.3-0.2,0.3-0.5c0-0.2,0-0.4,0-0.6c0-0.4,0-0.7,0-1.1c0.1-0.6-0.2-0.8-0.1-2.8
		c0-1.7,0.4-3.2,0.3-4.2c-0.2-1.1-0.4-2.1-0.5-3.2c0.5-1.2,0.7-2.6,0.6-3.9c-0.1-1.2,0.2-1.6,0.3-5.1c0-0.3,0.5-0.3,0.5,0
		c0.1,3.5,0.4,3.9,0.3,5.1c-0.1,2.6,0.5,3.1,0.6,3.9c-0.1,1.1-0.3,2.2-0.5,3.3c-0.1,1,0.3,2.5,0.3,4.2c0,2-0.3,2.2-0.2,2.8
		c0,0.4,0,0.8,0,1.1c0,0.2,0,0.4,0,0.6c0,0.2,0.1,0.5,0.3,0.5c0.2,0.1,0.4,0,0.4-0.1c0-0.1,0.1-0.1,0.1-0.1c0.1,0,0.1,0.1,0.1,0.1
		l0,0c0.2,0.1,0.4,0.1,1.3,0.1s0.7-0.3,0.7-0.5s-0.6-0.8-0.8-1.2s-0.2-0.7,0-1.8s0.6-3.1,1.1-4.8c0.3-1.3,0.3-2.7,0-4
		c-0.2-1.3-0.1-2.6,0.3-3.8c0.4-1.6,0.5-3.3,0.5-5c0-1.5,0-1.2-0.1-2.9c-0.1-0.8-0.2-1.6-0.3-2.4c-0.1-0.6-0.3-0.8-0.4-1.3
		c-0.2-1,0.1-1.4,0-2.9c-0.1-1.2,0.4-2.5,0.5-3.9c0.1,0.8,0.2,1.6,0.4,2.3c0.1,0.8,0.4,1.6,0.5,2.1c0.1,0.5,0.1,1.1,0,1.6
		c-0.1,0.8,0,1.6,0.2,2.4c0.3,1.2,0.7,2.6,0.4,3c-0.3,0.3-0.4,0.6-0.5,1c0,0.2,0,0.4-0.1,0.6c0,0.2-0.1,0.3-0.1,0.5
		c-0.1,0.2-0.1,0.4,0,0.5c0.6,0.2,0.7-0.5,0.7-0.8s0-0.3,0.1-0.4s0.2,0.2,0.2,0.3c0,0.2,0,0.5,0,0.8c-0.1,0.2-0.2,0.4-0.4,0.6
		c-0.2,0.1-0.3,0.3-0.4,0.4c-0.1,0.1-0.2,0.5,0,0.5s0.5-0.2,0.7-0.3c0.4-0.2,0.8-0.4,1.1-0.7c0.2-0.6,0.3-1.2,0.4-1.8
		c0.1-0.4,0-0.8-0.1-1.2c-0.1-0.2-0.1-0.5-0.1-0.7c0-1,0.1-2,0.2-3c0.1-1,0.1-2-0.1-2.9C31.7,31.8,31.7,31.3,31.6,30.7z"/>
</g>
</svg>
