<?xml version="1.0" encoding="utf-8"?>
<!-- Generator: Adobe Illustrator 22.0.1, SVG Export Plug-In . SVG Version: 6.00 Build 0)  -->
<svg version="1.1" id="Capa_1" xmlns="http://www.w3.org/2000/svg" xmlns:xlink="http://www.w3.org/1999/xlink" x="0px" y="0px"
	 viewBox="0 0 233.8 70.4" style="enable-background:new 0 0 233.8 70.4;" xml:space="preserve">
<style type="text/css">
	.st0{fill:none;stroke:#1E1E1C;stroke-width:0.3;stroke-miterlimit:10;stroke-dasharray:1,1;}
	.st1{fill:none;stroke:#1E1E1C;stroke-width:0.3;stroke-miterlimit:10;}
	.st2{fill:#1E1E1C;}
	.st3{font-family:'Roboto-Regular';}
	.st4{font-size:6.32px;}
	.st5{fill:#8F8F24;}
	.st6{font-size:7.17px;}
	.st7{fill:#848484;}
	.st8{font-size:5px;}
	.st9{fill:#343434;}
	.st10{fill:#5E6200;}
</style>
<title>comparacion</title>
<g>
	<line class="st0" x1="0" y1="42.8" x2="233.8" y2="42.8"/>
	<line class="st0" x1="0.4" y1="22.5" x2="233.8" y2="22.5"/>
	<line class="st0" x1="0.4" y1="5" x2="233.8" y2="5"/>
	<line class="st1" x1="0.4" y1="61.8" x2="233.8" y2="61.8"/>
	<text transform="matrix(1 0 0 1 101.41 68.87)" class="st2 st3 st4">Caballo</text>
	<text transform="matrix(1 0 0 1 18.59 68.87)" class="st2 st3 st4">Humano</text>
	<text transform="matrix(1 0 0 1 55.22 68.87)" class="st5 st3 st6">Tapir</text>
	<text transform="matrix(1 0 0 1 166.21 68.97)" class="st2 st3 st4">Rinoceronte</text>
	<text transform="matrix(1 0 0 1 0.81 61.13)" class="st7 st3 st8">0m</text>
	<text transform="matrix(1 0 0 1 0.81 42.18)" class="st7 st3 st8">1m</text>
	<text transform="matrix(1 0 0 1 0.81 21.55)" class="st7 st3 st8">1,5m</text>
	<text transform="matrix(1 0 0 1 0.81 4.3)" class="st7 st3 st8">2m</text>
	<path class="st9" d="M148.9,42.5c0,0.8,0.2,1.6,0.6,2.3c0,0,0.1,0.1,0.1,0c0.1-0.3-0.2-0.9-0.2-1.2c-0.2-1,0-2,0.4-2.9
		c0.4-0.8,0.9-1.5,1.3-2.2c0.2-0.5,0.4-1,0.5-1.5c0.3,0.7,0.5,1.4,0.7,2.2c0,1.5-0.5,1.6,0.3,3.2s-0.6,4.4-1.4,7.2
		c-0.3,0.8-0.4,1.6-0.2,2.4c0-0.1,0-0.3,0-0.4c0,0.2,0.1,0.5,0.1,0.7c0.3,0.8,0.8,1.5,1.4,2.2c0.3,0.4,0.5,0.8,0.6,1.2
		c0.4,1.4,0.1,2.9-0.9,4c-0.2,0.2-0.3,0.5-0.2,0.8c0,0.1,0.1,0.4,0.2,0.4l0,0l0,0l0.1,0.1l0,0l0.2,0.1l0,0l0.2,0.1l0,0
		c0.1,0.1,0.3,0.1,0.5,0.2l0,0l0.2,0.1l0,0l0.3,0.1l0,0h0.2l0,0l0.5,0.1h0.5h0.2l0,0h0.2l0,0h0.1l0,0l0,0c0,0,0.1,0,0.1,0l0,0
		c0.1,0,0.2,0.2,0.4,0.3l0.1,0.1l0.1,0.1l0.1,0.1h0.1l0.2,0.1L157,62l0.2,0.1h0.1c0.1,0,0.2,0,0.3,0c0.6,0,1.3-0.2,1.8-0.5
		c0,0,0.1,0,0.1,0s0,0,0,0c0.2,0.1,0.5,0.2,0.7,0.2l0,0c0.1,0,0.1-0.1,0.2-0.1s0-0.1,0.1-0.1h0.5h0.1h0.1h0.1h0.1h0.1h0.1l0.1-0.1
		l0.1-0.1l0.1-0.1c0,0,0.1,0,0.1-0.1l0.1-0.1v-0.1c0-0.1,0-0.2,0.1-0.2c0.1-0.1,0-0.1,0-0.1l0,0c0-0.2,0-0.5-0.1-0.7
		c-0.5-0.9-1.3-1.7-2.2-2.2c-0.6-0.6-1-1.2-1.3-2c-0.5-1.5-0.3-3.2,0.6-4.5l0,0c0.2-0.4,0.4-0.6,0.5-0.8l0.2-0.2c7.3-3,6-7,5.8-7.6
		l0,0c0.6,1.3,1.5,2.5,2.7,3.3c0.5,1.1,0.5,2.4,0.2,3.5c0,0.1-0.1,0.1-0.1,0.2l0,0c-0.5,1-0.6,2.2-0.2,3.2l0,0
		c0.1,0.2,0.2,0.4,0.3,0.6c0,0.1,0.1,0.1,0.1,0.2c0.4,1.2,0.6,2.4,0.6,3.7l-0.1,0.1l0,0c-0.4,0.3-2.1,1.9,0.1,3.4l0.1,0.1l0,0
		c0,0,0.1,0,0.1,0.1l0.3,0.2l0.1,0.1l0.3,0.1h0.1l0.3,0.1h0.1l0.3,0.1h0.1h0.3h0.4h0.2l0,0h0.2l0,0l0.2-0.1l0,0
		c0.3-0.1,0.5-0.2,0.8-0.4h-0.2c0.6,0.3,0.7,0.5,1,0.6h0.1c0.1,0,0.1,0,0.2,0.1h0.1h0.2h0.5h0.1h0.1l0.3-0.1l0,0h0.1h0.1h0.1h0.1
		h0.1h0.1l0.2-0.1l0,0h0.1l0,0l0,0l0,0l0,0l0,0c0,0-0.1,0.5,0.6,0.5l0,0c0.4-0.1,0.8-0.2,1.1-0.4c0.1,0,0.1-0.1,0.2-0.2h0.1l0.1-0.1
		h0.1l0.1-0.1l0,0c0,0,0-0.1,0.1-0.1l0,0c0,0,0-0.1,0-0.1l0,0c0,0,0-0.1,0-0.1l0,0c0,0,0-0.1,0-0.1s0,0,0-0.1c0,0,0-0.1,0-0.1l0,0
		h0.1c0,0,0-0.1-0.1-0.1c-0.7-1.1-1.8-2-3-2.5c-1.3-0.5-0.8-1.6-1.8-3.4c-0.3-0.6-0.6-0.8-0.4-1.2c0.1-0.1,0.3-0.2,0.4-0.4
		c0,0,0-0.1-0.1-0.1c0.1-0.2,0.3-0.3,0.4-0.5c0.2-0.2,0.3-0.4,0.5-0.6c0.1-0.1,0.2-0.1,0.2-0.2c0,0,0,0-0.1,0
		c0.5-0.8,0.9-1.7,1.1-2.7c0.8,0.1,1.7,0.2,2.6,0.2c7.1,0.3,11.1-2.3,11.6-2.7c0,0,0.1,0,0.1,0c0.4,1.1,0.8,2.3,1,3.5h-0.1
		c0,0.8,0.3,1.7,0.7,2.4c0.1,0.3,0.4,0.5,0.4,0.8l0,0c0,0,0.1,0.1,0.1,0.1L193,58l0,0l0,0l-0.1,0.1l0,0l-0.1,0.1l0,0l-0.1,0.1l0,0
		c-0.4,0.6-1.4,2.1-1,3.2c0,0,0,0.1,0.1,0.1c0,0,0,0.1,0,0.2l0,0c0,0,0,0,0,0.1c0.1,0.1,0.1,0.2,0.2,0.2c0.1,0.1,0.1,0.1,0.2,0.2
		l0.1,0.1l0.1,0.1l0.1,0.1c0,0,0.1,0,0.1,0.1h0.1h0.1h0.1h0.1h0.1h0.6h0.4h0.9h0.1h0.2h0.1h0.1l0,0c-0.1,0-0.1,0-0.1,0
		s0.6,0.2,1.2,0.4c0.2,0.1,0.5,0.1,0.7,0.2l0,0l0.4,0.1h0.1c0.2,0,0.4,0,0.7,0h0.1c0.2,0,0.3-0.1,0.5-0.2l0,0c0.1,0,0.1-0.1,0.2-0.1
		l0,0c0.1,0,0.1-0.1,0.1-0.1l0,0c0,0,0.1-0.1,0.1-0.1h0.1h-0.1h-0.1c0,0,0,0,0-0.1c0,0,0,0,0.1,0v0h0.1l0,0h0.1h0.3h0.1h0.1h0.2h0.1
		l0.2-0.1h0.1l0.2-0.1l0,0c0.1,0,0.1-0.1,0.2-0.1c0,0,0.1-0.1,0.1-0.1l0,0V62c0,0,0,0,0-0.1c0,0,0-0.1,0-0.1c0,0,0,0,0-0.1l0,0l0,0
		l0,0h0.1l0,0c0.3,0,0.6,0.1,0.9,0.1l0,0c0,0,0.1-0.2,0.1-0.2s0.1-0.2,0.2-0.2h0.1h0.2l0,0l0.2,0.1h0.1l0,0l0,0l0,0
		c0.5,0.3,1.1,0.5,1.7,0.5h0.7c0.1,0,0.2,0,0.2,0h0.1h0.1h0.1h0.1l0,0h0.1l0,0c0,0,0.1,0,0.1,0v0l0,0c0.2,0.2,0.4,0.3,0.7,0.3l0,0
		c0,0,0.1,0.1,0.2,0.1l0,0c0.1,0,0.2-0.1,0.2-0.1s0-0.1,0.1-0.1h0.2l0,0l0.2-0.1h0.1c0.1,0,0.1,0,0.2-0.1l0,0c0.1,0,0.1-0.1,0.1-0.1
		l0,0c0,0,0.1-0.1,0.1-0.2c0-0.1,0.1-0.2,0.1-0.3c0,0,0-0.1,0-0.1c0-0.1,0-0.1,0-0.2v-0.1c0,0,0,0,0-0.1s0,0,0,0v0.2l0,0
		c-0.4-1.2-1.2-2.2-2.3-2.8c-0.2-1-0.2-1.9,0-2.9h0.1v-0.1c0-0.2,0.1-0.4,0.2-0.6c0,0,0,0,0.1,0s0,0,0,0c0.5-1.1,1.1-2.1,1.8-3
		l0.1-0.1l0,0c0.3-0.6,0.7-1.2,1-1.8c0.1-0.1,0.2-0.2,0.2-0.2l0,0l0.5-0.8c0.6-0.8,1-1.7,1.2-2.6l0,0l0,0c0,0,0.1-0.3,0.1-0.4
		c0,0,0-0.1,0-0.1c0-0.1,0.1-0.2,0.1-0.3v-0.1c0-0.1,0-0.2,0-0.3v-0.1l0.1-0.3l0,0c0-0.1,0-0.2,0-0.3v-0.1c0,0,0-0.1,0-0.1
		c0.3,0,0.8-0.3,1.4-1.3c1.6,0.5,3.1,1.4,4.2,2.6c1.8,2.1,2.3,1.2,4.1,1.6s3.3,0.7,4.1-1l0,0c0.3,0,2.8,0,3.5-1.7
		c0.2-0.3,0.2-0.7,0.1-1.1c0,0,0,0,0-0.1l0,0c0,0,0,0,0-0.1c0,0,0,0,0-0.1c0,0,0-0.1,0-0.1v-0.1l-0.1-0.2v-0.1l-0.1-0.1
		c0,0,0-0.1,0-0.1s0-0.1,0-0.1c0,0,0-0.1,0-0.1v-0.1c0,0,0,0,0-0.1s0-0.1,0-0.1c0,0,0,0,0-0.1c0-0.1,0-0.1,0-0.2h-0.1
		c0-0.3,0-0.7,0.1-1c0,0,0.6-0.3,0.1-1.6h0.2c-0.2,0.3-0.4,0.6-0.6,0.8h-0.1l0,0c0.3-0.2,0.6-0.5,0.9-0.7c0,0,0,0.1,0,0.1
		s0.1,0.1,0.1,0.1l0,0c0.9-1.2,5-5.7,3.8-12c0-0.1,0-0.4,0-0.5s0,0,0,0c0,0,0-0.1,0-0.1l0,0c0,0,0,0-0.1-0.1l0,0c0,0-0.1,0-0.1,0
		h-0.1l0,0l-0.1,0l0,0l-0.1,0.1l0,0c0,0-0.1,0.1-0.1,0.2l-0.1,0.1l0,0c0,0.4-0.1,0.8-0.2,1.2c-0.7,1.6-3.2,6.1-6.7,6.1l0,0
		c0-0.1,0-0.2,0-0.3c-0.1-0.4-0.4-0.6-0.8-0.5c0-0.1,0-0.2,0-0.3c0-0.1-0.1-0.1-0.2-0.2c-0.3,0.2-0.6,0.3-1,0.3
		c0.3,0,0.6-0.1,0.9-0.2h0.2c1.1-1.3,1.8-2.9,2.1-4.6c0-0.1,0-0.4,0-0.5s0-0.1,0-0.1s0-0.2,0-0.3c0,0,0-0.1,0-0.1c0-0.1,0-0.4,0-0.4
		l0,0c0,0,0-0.1,0-0.1s0,0.1,0,0s0-0.1,0-0.2s0,0,0,0s0.1-0.2,0.1-0.3h0.1c0,0,0.2-0.1,0.2-0.1l0,0V27l0,0c0,0-0.2,0-0.2,0h-0.2l0,0
		l0,0l0,0l0,0v0l0,0c0,0,0,0-0.1,0.1l0,0v0l0,0l0,0c-0.2,0.3-0.4,0.7-0.5,1c-0.7,1.4-2,2.4-3.6,2.9h-0.2c0-0.1,0-0.3,0-0.4
		c-0.1-0.3-0.3-0.5-0.6-0.5c0,0-0.6-0.3-1.1-1.9c-0.1-0.2-0.1-0.5-0.2-0.8c-0.4-1.7,0.1-3.5-0.5-5.5c-0.2-0.6-0.5-1.2-0.9-1.8
		c0.1-0.8,0.9-1.2,2.4-2.6c1.7-1.5,0.6-6.7,0.6-6.7c-0.2,0.5-0.9,1.2-2.8,2.6c-1.3,0.8-2,2.5-1.5,4c0.1,0.4,0.1,0.8,0,1.2
		c-1.1-0.8-2.4-1.2-3.8-1.1c0,0-1.2-0.1-2.9-2.3c-0.7-0.9-1.6-1.6-2.6-2l0,0l0,0c-0.3-0.3-2.1-2.6-4.1-2.9c0.1,0.6,0.2,1.3,0.1,1.9
		c0,0-0.1,0-0.1,0l0,0c-2.4-0.3-4.8,0.3-6.8,1.6l0,0h-0.1c-0.9-0.2-1.7-0.4-2.5-0.7c-1.3-0.5-3.1-0.4-7.4,1.5s-7-0.1-9-0.8
		s-7.1-0.8-8.6-1.2c-7.7-2.3-18.4,1.4-19,12.2c-0.1,1.4-0.1,2.6-0.1,3.7c-0.7,1.1-0.4,2.7-0.3,4c0.2,2-0.1,4-0.8,5.9
		C148.9,39.6,148.7,41,148.9,42.5z M198.9,58c-0.4-1.1-0.3-3,0.3-5.1c0.1-0.1,0.1-0.2,0.1-0.3l0,0c0-0.1,0-0.2,0.1-0.3
		c0.1-0.4,0.2-0.8,0.3-1.1c0-0.1,0.1-0.2,0.1-0.2l0,0c0.4-1.3,0.6-1.8,0.7-2.2c0.1-0.1,0.1-0.3,0.1-0.4l0,0c0,0,0,0,0-0.1
		c0.2,0,0.5-0.1,1-0.2c-0.1,0.7-0.1,1.3-0.1,2c0,0-0.1,0-0.1,0c0,0.1,0,0.2,0.1,0.3c0,1.9,0.1,3.8-0.2,4.6c-0.3,0.7-0.5,1.5-0.4,2.3
		l-0.1,0.2c0,0,0,0,0.1,0l-0.1,0.2l0,0c-0.3,0.4-0.5,0.8-0.7,1.2l-0.3-0.2C199.3,58.7,199,58.4,198.9,58L198.9,58z M227.8,40.2
		L227.8,40.2z M195.6,62.8L195.6,62.8z M190.8,46.3L190.8,46.3L190.8,46.3z"/>
	<path class="st7" d="M86.9,57.2l0.1,0.1l0.1-0.1c0.7-0.8,1.3-1.6,1.8-2.6c-0.2,1.1-0.6,2.1-1.2,3l0,0v0.1l0,0
		c0.4,0.1,0.8,0.2,1.3,0.2c0.2,0,0.4,0,0.7,0h0.2l0,0c1.3-0.7,1.6-2.5,1.7-3.8c0.2,1,0.2,2.1-0.1,3.1v0.1l0.1,0.1h0.1
		c0.4-0.2,0.7-0.4,1.1-0.7c0,0.1,0,0.2-0.1,0.3c-0.3,1-0.1,1.2,0.4,1.7c0.1,0.1,0.2,0.2,0.3,0.4c0.3,0.4,0.3,0.5,0.3,0.6
		s0,0.2,0.1,0.4c0,0,0.1,0.1,0.2,0.1c0.5,0.6,0,1.9,0,2v0.1h0.1c0.6,0.3,1.2,0.4,1.8,0.3c0.6,0,1.2-0.1,1.7-0.2h0.1l-0.2-0.3
		c-0.1-0.1-0.2-0.3-0.3-0.5l0,0c-0.2-0.3-0.6-1.1-0.9-1.4v-0.1C96.1,60.1,96.1,60,96,60s-0.7-0.7-0.6-1.1c0.2-0.7,0.1-1.5-0.2-2.1
		c-0.3-1.1-0.4-2.2-0.3-3.3c0-1,0.1-2.1,0.3-3.1l0.1-0.1c0.6-0.6,0.9-1.4,0.9-2.3c0-0.2,0-0.3,0.2-0.4c0,0.1,0.1,0.2,0.1,0.3
		c1,2.4,1.5,4.9,1.6,7.5c-0.2,0.7,0.1,1.4,0.6,1.8l0.4,0.4c0.4,0.4,0.4,0.6,0.4,0.7c0,0.1,0,0.1,0,0.2l0,0l0,0c0,0,0,0.1,0,0.1
		c0.7,0.7,0.3,2.7,0.3,2.7v0.1h0.1c0.6,0.4,1.4,0.6,2.2,0.5c0.7,0,1.3-0.1,2-0.2h0.1l-0.3-0.4l-0.5-0.8l0,0
		c-0.3-0.4-0.9-1.3-1.2-1.8l0,0h-0.1l-0.1-0.1c0-0.1-0.1-0.1-0.2-0.2c-0.3-0.3-0.5-0.6-0.6-1c0.1-0.8-0.1-1.7-0.6-2.4
		c-0.4-1.2-0.7-2.5-0.8-3.8c-0.2-1.2-0.3-2.4-0.2-3.5v-0.1c0.5-0.7,0.7-1.7,0.6-2.6c-0.1-0.4,0.2-0.6,0.6-0.9l0,0l0,0
		c0.7-0.5,1.9-1.5,2.6-4.7c0.1-0.4,0.2-0.8,0.3-1.3c0.1-0.3,0.1-0.6,0.2-0.9s0.1-0.5,0.2-0.8l0.1,0l0,0l0,0c0.2,0,0.4,0,0.5,0h0.2
		h0.1h0.1h0.1h0.1l0,0h0.1c0.2,0.1,0.4,0.2,0.6,0.3l0,0l0.2,0.1h0.1l0.2,0.1l0.1,0l0.3,0.2l0.5,0.3l0.3,0.2l0.1,0.1l0.2,0.2l0.1,0.1
		h0.1l0.5,0.3l0.2,0.1h0.1l0.3,0.2l0.2,0.1l0.2,0.1l0,0l0.2,0.1c0.1,0,0.1,0.1,0.2,0.1l0.2,0.1c0.1,0.1,0.2,0.1,0.4,0.2l0.2,0.1
		l0.2,0.1l0.3,0.1l0,0c0.1,0,0.2,0.1,0.3,0.1s0.2,0.1,0.3,0.1l0.4,0.1c3.2,0.7,6.4,1,9.7,1l0,0c0,0.1,0,0.2,0,0.4
		c0,0.3-0.1,0.6-0.2,0.9c-0.2,1.1-0.3,2.2-0.2,3.3c0.1,0.8,0,1.6-0.2,2.4l0,0c-0.4,0.5-0.4,1.2-0.2,1.8v0.2c-0.1,1.8-0.4,3.7-1,5.4
		c-0.4,1-0.7,2.1,0,2.4s1.3,0.9,1.2,1.3v0.1h0.1l0,0c0,0,0,0,0,0c0.5,0.5-0.1,2-0.1,2v0.1h0.1c0.2,0.1,0.5,0.2,0.7,0.2l0,0h0.1h0.2
		h0.8c0.6,0,1.2-0.1,1.7-0.2h0.1l-0.1-0.3l-0.2-0.5v0c-0.2-0.3-0.5-1-0.7-1.4c0,0,0,0,0-0.1v-0.1l0,0l-0.1-0.1l0,0
		c0,0-0.8-0.5-0.8-1.3c0-0.2,0.1-0.5,0.2-0.7c0.1-0.1,0.1-0.2,0.1-0.4c0-0.2-0.1-0.3-0.2-0.4c-0.1-0.1-0.1-0.2-0.1-0.4
		c0-0.1,0-0.2,0-0.5c0.1-1.3,0.3-2.6,0.7-3.9c0.2-0.4,0.4-0.8,0.5-1.3c0.1-0.3,0.2-0.7,0.3-1l0,0c0.2-0.7,0.5-2.1,0.8-3.3l0.1,0.8
		c0.2,0.8,0.2,1.6,0.1,2.5c-0.3,0.6-0.3,1.3,0,1.9l0.1,0.2c0.2,1.8,0,3.6-0.4,5.4c-0.3,1-0.4,2.1,0.3,2.4s1.4,1,1.4,1.3v0.1h0.1h0.1
		l0,0c0.6,0.5,0.1,2,0.1,2v0.1h0.1c0.6,0.3,1.2,0.4,1.8,0.3c0.6,0,1.2-0.1,1.7-0.2h0.1l-0.2-0.3l-0.3-0.5l0,0
		c-0.2-0.3-0.6-1.1-0.9-1.4v-0.1v0l0,0h-0.1c-0.1-0.1-0.1-0.1-0.1-0.1l0,0c-0.2-0.2-1.3-0.8-1.3-1.5c0-0.2,0-0.5,0.1-0.7
		c0-0.1,0-0.3,0-0.4c0-0.2-0.1-0.3-0.2-0.4c-0.1-0.1-0.2-0.2-0.2-0.4c0-0.1,0-0.2,0-0.5c-0.1-1.3,0-2.6,0.2-3.9
		c0.2-0.8,0.4-1.5,0.5-2.3l0,0c0.1-1.8,0.4-3.6,0.9-5.3c0.6-1.3,1-2.7,1.2-4.2c0-0.2,0.1-0.4,0.1-0.6v-0.2l0,0l0,0
		c1.2-0.6,1.9-1.5,2.4-3.6c0.1-0.3,0.3-0.5,0.3-0.8l0,0c0.2-0.6,0.3-1.3,0.2-2c0-0.3,0-0.5,0-0.7c0,0,0,0,0-0.1v-0.1V32l0,0v-0.2
		c0-1.1,0.4-2.1,1-2.9c0.6-1,1.1-2,1.5-3c0.4-1.2,1.1-2.3,1.9-3.2l0.1-0.1c0.2-0.1,0.4-0.3,0.7-0.4c0.3-0.1,0.7-0.2,1.1-0.1
		c0.1,0.1,0.1,0.2,0.1,0.3c0.1,0.1,0.2,0.2,0.2,0.3c0.8,0.5,1.7,0.8,2.7,0.9h0.4c0.2,0.1,2.5,1,2.8,1.3c0.1,0.1,0.1,0.2,0.1,0.4
		s0.1,0.7,0.9,0.7h0.6c0.6,0,0.8,0,0.9-0.1l0,0l0,0c0,0,0,0,0-0.1c0.2,0,0.3-0.1,0.4-0.1c0.2-0.1,0.3-0.2,0.4-0.3l0,0l0,0
		c0.1-0.1,0.2-0.3,0.2-0.5c0,0,0-0.1,0-0.1v-0.1c0-0.2,0.1-0.4,0.2-0.6c0.1-0.2,0.1-0.3,0.1-0.5c-0.1-0.5-0.3-0.9-0.5-1.3
		c-0.4-0.8-0.9-1.5-1.4-2.2c-0.7-0.8-1.3-1.7-1.8-2.6c-0.2-0.3-0.4-0.7-0.6-1c-0.1-0.1-0.3-0.4-0.5-0.6l-0.2-0.2l-0.2-0.3
		c-0.2-0.2-0.4-0.5-0.6-0.8l0,0l0.1,0.1v-0.1c-0.1-0.4-0.3-0.7-0.6-1l0.4,0.2l0.3,0.2l-0.2-0.3c-0.2-0.3-0.4-0.6-0.8-0.8
		c0.1-0.7,0.1-1.4-0.2-2l-0.1-0.3v0.4c-0.1,0.5-0.3,1-0.8,1.4l-0.2,0.1h-0.1c0.1-0.7,0.1-1.4-0.2-2.1l-0.1-0.3v0.4
		c-0.1,0.5-0.3,1-0.8,1.4c-0.2,0.2-0.4,0.4-0.6,0.6c-1.4-0.1-2.7,0.2-3.9,1c-0.1,0.1-0.3,0.2-0.4,0.2c-0.6,0.1-1.2,0.3-1.6,0.7
		c-0.1,0.1-0.2,0.2-0.4,0.3c-0.5,0.5-1.1,0.9-1.7,1.1c-0.9,0.3-1.7,0.8-2.3,1.4v0c-0.1,0.1-0.2,0.2-0.4,0.3c-0.5,0.3-1,0.7-1.5,1.2
		c-0.2,0.3-0.4,0.5-0.5,0.6s-0.3,0.5-0.6,0.5c-0.4,0.1-0.7,0.3-0.9,0.7c-0.1,0.4-0.4,0.7-0.8,0.8l-0.2,0.1l0,0
		c-0.1,0.1-0.3,0.1-0.5,0.1l-0.8,0.2l-0.3,0.1c-1.3,0.2-2.6,0.6-3.8,1.1c-0.6,0.2-1.1,0.5-1.6,0.8l-0.4,0.2
		c-2.3,1.3-7.7-0.2-10.9-1.1c-0.7-0.2-1.3-0.4-1.7-0.5c-2.3-0.6-4.7-0.6-7,0.1c-1.3,0.3-2.5,0.9-3.6,1.6l0,0c-0.3,0.1-3.4,1-4.8,6.2
		c-0.6,2.8-0.7,5.6-0.5,8.4c0.2,2.8,0.1,5.7-0.6,8.4l-0.1,0.4l0.3-0.3c0.5-0.8,0.8-1.7,0.9-2.6c-0.1,2.3-0.3,4.6-0.8,6.8
		C88.7,53.3,87.9,55.3,86.9,57.2L86.9,57.2z M93.4,43.9c-0.8-3.5-1.3-7-1.4-10.6c0.4,1.5,1,3,1.8,4.3c0.3,0.5,0.5,0.9,0.7,1.4
		c0,0.1,0.1,0.1,0.1,0.2c0.6,1.2,0.4,2.6-0.3,3.7c-0.3,0.5-0.6,0.8-0.8,1.2C93.4,44,93.4,43.9,93.4,43.9z"/>
	<path class="st10" d="M52.3,61c0,0-0.2,1-1,0.1c0,0-0.1-0.2-0.2-0.5c-0.2-0.6-0.3-1.2-0.3-1.8c0-0.6-0.3-1.9-0.3-3.5
		S50.4,54,51,53.4c0.7-0.6,1.2-1.4,1.6-2.2c-0.8-0.8-1.6-1.5-2.5-2.2c-0.2,0-0.6,0.2-0.5-0.5c-1-1.1-1.6-2.5-1.7-4
		c0,0-0.2-2.1,2.2-4.8c2.3-2.7,5.7-4.2,9.2-4.1c2.2-0.1,4.4,0.3,6.5,1c0.4,0.1,1.9,1,5.1-0.2l0.3,0.1v-0.1l0.2,0.1v-0.1
		c0,0,0.3,0.2,0.3,0.2c0-0.1-0.1-0.2-0.1-0.2l0.2,0.2v-0.3l0.1,0.2v-0.2l0.2,0.2V36l0.2,0.2V36l0.2,0.2l0.1-0.3l0.3,0.1v-0.2L73,36
		v-0.2l0.2,0.2v-0.2l0.2,0.2l0.1-0.3l0.2,0.1v-0.2l0.2,0.2v-0.2l0.2,0.2v-0.2l0.2,0.2v-0.2l0.2,0.2l0.1-0.2l0.2,0.2l0.1-0.2l0.2,0.2
		v-0.2l0.1,0.2l0.1-0.2l0.2,0.2l0.1-0.2l0.2,0.2l0.1-0.2l0.1,0.2l0.2-0.2L76,35.8l0.3-0.1l-0.1,0.2l0.4-0.1L76.5,36l0.3-0.2L76.7,36
		l0.3-0.2L76.9,36l0.3-0.1L77,36.1l0.4-0.1l-0.1,0.1h0.5l-0.2,0.1H78l-0.1,0.1h0.4l-0.2,0.2h0.4l-0.1,0.1h0.3l-0.1,0.1h0.3L78.7,37
		h0.3L78.8,37h0.3l-0.2,0.2c0.2,0,0.3-0.1,0.4-0.2c0.1-0.2,0.5-0.9,1.2-0.3c0,0,0.5,0.2,0.2,1.6h0.2l-0.1,0.1H81l-0.1,0.1h0.2
		l-0.1,0h0.2l-0.1,0.1h0.2l-0.1,0.1h0.2l-0.1,0.1c0,0,0.1,0,0.2,0.2c0.4,0.8,1,1.5,1.8,2c0.7,0.4,1.4,0.8,2,1.4
		c0.3,0.2,0.5,0.4,0.8,0.6c1,0.9,1.6,2.2,1.7,3.6c0,0.2,0,0.5,0,0.7c-0.1,0.3-0.4,0.5-0.7,0.4c0,0,0,0,0,0c-0.1,0-0.2,0-0.3,0
		c-0.2,0.1-0.4,0.1-0.6,0c-0.5,0.2-1,0.2-1.5,0.1c-0.7-0.2-0.5,0.3-2.7,0c-1.1-0.1-2.2-0.4-3.3-0.8l-0.9,0.3c-0.6,0.2-1,0.2-1.2,0.4
		c-0.3,0.5-0.8,0.9-1.3,1.2c-0.7,0.4-1.3,1-1.7,1.7c-0.1,0.2-1.2,3.1-1.6,4.3s-0.5,5,0,5.7s1,0.6,1,0.6s1.1,0.7,0.5,0.7
		c-0.6,0.1-1.3,0.1-1.9,0c0,0,0.1,0.5-0.6,0.3s-0.7-0.3-0.7-0.6c-0.1-0.6-0.2-1.2-0.3-1.8c0-0.8-0.2-0.9-0.2-0.9
		c-0.3,0.6-0.8,1.1-1.3,1.6C68,61,67.6,61,67.5,60.7s-0.1-0.7,0.4-1c0,0-0.7,0.2-0.8,0.4c-0.3-0.1-0.5-0.5-0.3-0.8
		c0-0.1,0.1-0.1,0.1-0.2c0.4-0.6,0.5-0.5,0.5-0.5s-0.8,0.2-0.5-0.2s1.3-1.4,1.5-1.8c0.2-0.3,0.3-0.8,0.1-1.1c0,0-0.4-0.7-0.7-1
		s-2.3-2.7-2.4-3l-0.6,0.2l-0.2,0.2v-0.1L64.3,52v-0.1l-0.5,0.2l0.1-0.1L63.6,52H63l-0.3,0.1V52c0,0-1.1,0.1-1.9,0h-0.2v0h-0.2
		l0.1-0.1L60,52l0.1-0.2L59.8,52v-0.1l-0.2,0.1v-0.1h-0.2v-0.1h-0.2l0-0.1L59,51.7l0.1-0.1l-0.2,0.1l0.1-0.1h-0.2v-0.1h-0.3l0.2-0.1
		h-0.2c-0.2-0.1-0.3-0.3-0.5-0.3c-0.2-0.1-0.4-0.1-0.6-0.2c0,0-0.3,0.2-0.3,0.3s0,0.2-0.2,0.2c0.1,0.3,0.1,0.7,0,1
		c0,0,0.1,0.3,0.2,1.2c0.2,1,0.4,2,0.7,3c0.1,0.7,0.4,1.3,0.7,1.9c0.5,0.9,1.2,1.7,2,2.3c0,0,0.4,0.1,1.1,0.9
		c-0.3,0.1-0.5,0-0.8-0.1c0,0,0.5,0.6,0.2,0.7c-0.4,0.1-0.9,0-1.3-0.2c-0.1-0.1-0.3-0.2-0.5-0.2c0,0-0.2,0.9-0.7,0.8
		S58,62.2,57.8,62c-0.2-0.3-0.3-0.7-0.4-1c-0.2-0.6-0.6-1.2-1-1.7c-0.4-0.4-0.7-0.9-0.8-1.5c-0.3-0.3-0.5-0.7-0.6-1.1
		c-0.2-0.8-0.4-1.5-0.7-2.2c0,0-1.4,1.4-1.4,2.5s-0.3,2.4,0.5,2.9l1.2,0.9L54.3,61c0,0,0.3,0.5,0.2,0.5c-0.5,0-1.1-0.2-1.6-0.3
		L52.3,61z"/>
	<path class="st9" d="M30.1,30.7c0-0.3,0-0.5,0.1-0.8c0.1-1.1,0-2.1-0.3-3.1c-0.2-0.9-0.4-1.8-0.6-2.7c-0.4-0.8-1.1-1.4-2-1.5
		c-0.4-0.1-0.8-0.3-1.2-0.4c-0.2-0.1-0.5-0.2-0.8-0.2c-0.2-0.1-0.4-0.2-0.5-0.3c-0.4-0.3-0.7-0.8-0.7-1.2c0.2-0.2,0.4-0.4,0.5-0.6
		l0,0c0-0.1,0.1-0.2,0.1-0.3v0c0-0.2,0-0.5,0.2-0.6l0.2-0.1c0.2-0.2,0.2-0.2,0.3-0.5c0-0.1,0.2-0.7,0-0.9s-0.2,0-0.2-0.1
		c0-0.2,0-0.4,0-0.6l0,0l0,0l0,0c0-0.1,0-0.1,0-0.2c0-0.3,0-0.6-0.1-0.9c0.1-0.4,0-0.8-0.3-1.1c-0.2-0.3-0.4-0.5-0.7-0.7
		c-0.3-0.1-0.7-0.2-1-0.2c-0.3-0.1-0.7-0.1-1,0c-0.3,0.1-0.6,0.2-0.9,0.3c-0.2,0.1-0.3,0.3-0.4,0.5c0,0.1-0.1,0.2-0.2,0.3
		c-0.1,0.1-0.1,0-0.2,0.1c-0.1,0.5-0.2,1-0.1,1.4l0,0c0,0.1,0,0.2,0,0.3s0.1,0.7,0,0.8s-0.1,0-0.3,0.1s0,0.8,0,0.9
		c0,0.3,0,0.3,0.3,0.5l0.2,0.1c0.1,0.1,0.1,0.4,0.2,0.6c0.1,0.3,0.3,0.7,0.6,0.9c-0.1,0.5-0.3,0.9-0.7,1.2c-0.2,0.1-0.3,0.2-0.5,0.3
		c-0.3,0.1-0.5,0.1-0.8,0.2c-0.4,0.2-0.7,0.3-1.1,0.4c-0.9,0.2-1.6,0.7-2,1.5c-0.4,0.9-0.3,1.6-0.6,2.7c-0.3,1-0.4,2.1-0.3,3.1
		c0,0.2,0.1,0.6,0.1,0.8c0,0.5,0,1-0.1,1.5c-0.2,1-0.3,2-0.1,2.9c0.1,1,0.2,2,0.2,3c0,0.2,0,0.5-0.1,0.7c-0.1,0.4-0.2,0.8-0.1,1.2
		c0.1,0.6,0.2,1.2,0.4,1.8c0.3,0.3,0.7,0.5,1.1,0.7c0.2,0,0.6,0.3,0.7,0.3s0.1-0.4,0-0.5c-0.1-0.2-0.3-0.3-0.4-0.4
		c-0.2-0.2-0.3-0.4-0.4-0.6c0-0.2,0-0.5,0-0.8c0-0.1,0-0.4,0.2-0.3s0.1,0.1,0.1,0.4s0.1,1,0.7,0.8c0.2-0.1,0.1-0.3,0-0.5
		c-0.1-0.1-0.1-0.3-0.1-0.5c-0.1-0.2-0.1-0.4-0.1-0.6c-0.1-0.4-0.2-0.7-0.5-1c-0.3-0.4,0.1-1.7,0.4-3c0.2-0.8,0.3-1.6,0.2-2.4
		c-0.1-0.5-0.1-1.1,0-1.6c0.1-0.5,0.4-1.3,0.5-2.1c0.2-0.8,0.4-1.6,0.4-2.4c0.1,1.5,0.6,2.7,0.5,3.9c-0.1,1.5,0.1,1.9,0,2.9
		c-0.1,0.5-0.3,0.6-0.4,1.3c-0.2,0.8-0.3,1.6-0.3,2.4c-0.1,1.7-0.1,1.4-0.1,2.9c0,1.7,0.1,3.4,0.5,5.1c0.4,1.2,0.5,2.5,0.3,3.7
		c-0.3,1.3-0.3,2.7,0,4c0.4,1.7,1,3.7,1.1,4.8s0.1,1.5,0,1.8s-0.8,1-0.8,1.2S18.6,62,19.6,62s1.1,0.1,1.3-0.1c0,0,0.1,0,0.2,0
		c0.1,0.1,0.2,0.1,0.4,0.1s0.3-0.2,0.3-0.5c0-0.2,0-0.4,0-0.6c0-0.4,0-0.7,0-1.1c0.1-0.6-0.2-0.8-0.2-2.8c0-1.7,0.4-3.2,0.3-4.2
		c-0.2-1.1-0.4-2.2-0.5-3.3c0.1-0.8,0.7-1.3,0.6-3.9c-0.1-1.2,0.2-1.6,0.3-5.1c0-0.3,0.5-0.3,0.5,0c0.1,3.5,0.4,3.9,0.3,5.1
		c-0.1,1.3,0.1,2.7,0.6,3.9c-0.1,1.1-0.3,2.2-0.5,3.3c-0.1,1,0.3,2.5,0.3,4.2c0,2-0.3,2.2-0.1,2.8c0,0.4,0,0.7,0,1.1
		c0,0.2,0,0.4,0,0.6c0,0.3,0.1,0.5,0.3,0.5c0.1,0.1,0.3,0,0.4-0.1c0,0,0.1,0,0.2,0c0.2,0.1,0.4,0.1,1.3,0.1s0.7-0.3,0.7-0.5
		s-0.6-0.8-0.8-1.2s-0.2-0.7-0.1-1.8s0.7-3.1,1.1-4.8c0.3-1.3,0.3-2.7,0-4c-0.1-1.2,0-2.5,0.4-3.7c0.4-1.6,0.5-3.3,0.5-5
		c0-1.5,0-1.2-0.1-2.9c-0.1-0.8-0.2-1.6-0.3-2.4c-0.2-0.6-0.3-0.8-0.4-1.3c-0.2-1,0.1-1.4,0-2.9c-0.1-1.2,0.4-2.5,0.5-3.9
		c0.1,0.8,0.2,1.6,0.4,2.4c0.1,0.8,0.4,1.6,0.5,2.1c0,0.5,0,1.1,0,1.6c-0.1,0.8,0,1.6,0.2,2.4c0.3,1.2,0.7,2.6,0.4,3
		c-0.3,0.3-0.4,0.6-0.5,1c0,0.3-0.1,0.7-0.2,1c-0.1,0.2-0.1,0.4,0,0.5c0.5,0.2,0.7-0.5,0.7-0.8s0-0.3,0.1-0.4s0.2,0.2,0.2,0.3
		c0,0.3,0,0.5,0,0.8c0,0.2-0.2,0.5-0.4,0.6c-0.2,0.1-0.3,0.3-0.4,0.4c-0.1,0.1-0.2,0.5,0,0.5s0.5-0.2,0.7-0.3
		c0.4-0.2,0.8-0.4,1.1-0.7c0.2-0.6,0.3-1.2,0.4-1.8c0-0.4,0-0.8-0.1-1.2c-0.1-0.2-0.1-0.5-0.1-0.7c0-0.5,0.1-2,0.2-3
		c0.1-1,0.1-2-0.1-2.9C30.1,31.8,30.1,31.3,30.1,30.7z"/>
	<path class="st7" d="M46.5,39.8c-0.1-0.3-0.1-0.5-0.1-0.8c0-0.3-0.1-0.5-0.1-1.2S46,34.6,46,33.3s-0.4-1.9-0.4-2.8
		c-0.3-1.7-0.5-3.4-0.6-5.2c0-0.6-0.2-1.1-0.6-1.5c-0.5-0.3-1.1-0.6-1.7-0.6c-0.5-0.1-0.8-0.4-1.2-0.5c-0.2,0-0.4-0.1-0.5-0.3
		c-0.1-0.1-0.3-0.3-0.4-1.2c0.2-0.2,0.4-0.4,0.5-0.6c0.2-0.3,0.3-0.6,0.5-0.9c0.1-0.1,0.1-0.3,0.3-0.3l0,0c0.3-0.2,0.3-0.2,0.3-0.5
		s0.2-0.8,0-0.9s-0.3,0-0.3-0.1c0-0.4,0-0.8-0.1-1.2c-0.2-0.8-0.5-1.5-1.4-1.7c0-0.1,0-0.2,0-0.4c-0.1-0.2-0.2-0.5-0.5-0.6
		C39.7,14,39.6,14,39.4,14c-0.4,0-0.8,0.3-0.9,0.7c0,0.1,0,0.2,0,0.4c-0.9,0.3-1.1,0.9-1.4,1.7C37,17.1,37,17.5,37,17.9
		c0,0.1-0.2,0-0.3,0.1s0,0.8,0,0.9c0,0.2,0.1,0.4,0.3,0.5l0,0c0.1,0.1,0.2,0.2,0.3,0.3c0.1,0.3,0.3,0.6,0.5,0.9
		c0.2,0.2,0.3,0.4,0.5,0.6c-0.1,0.9-0.3,1.1-0.4,1.2c-0.2,0.1-0.3,0.2-0.5,0.3c-0.3,0.1-0.6,0.4-1.2,0.5c-0.6,0.1-1.2,0.3-1.7,0.6
		c-0.4,0.4-0.7,0.9-0.6,1.5c-0.1,1.7-0.2,3.5-0.5,5.2c0,0.9-0.4,1.5-0.5,2.8s-0.3,3.8-0.3,4.5s-0.1,0.9-0.1,1.2c0,0.3,0,0.5-0.1,0.8
		c-0.1,0.6,0,1.3,0.1,1.9c0.1,0.4,0.3,0.7,0.5,0.9c0.2,0.1,0.3,0.2,0.5,0.3c0.1,0,0.2,0,0.2,0s0.3,0,0.3,0s-0.5-0.7-0.6-0.8
		c-0.1-0.3-0.1-0.6,0-0.8c0-0.4,0.2-0.7,0.2-0.5c0,0.2,0,0.4,0,0.6c-0.1,0.2-0.1,0.4,0,0.6c0.1,0.2,0.3,0,0.3-0.2
		c0-0.3,0.1-0.6,0.2-0.9c0.2-0.4,0.1-0.8-0.1-1.2c-0.2-0.3-0.4-0.6-0.4-1c0-0.3,0-0.7,0-1c0.1-0.6,0.6-1.9,1.2-3.8
		c0.4-1,0.5-2,0.4-3.1c0-0.9,0.2-2.2,0.3-3.2c0.1,0.6,0.3,1.2,0.6,1.8c0.2,1.1,0.3,2.2,0.3,3.4c-0.1,0.9-0.5,1.8-0.9,2.6
		c-0.5,1-0.9,2-1,3.1c-0.1,1.5,0,3,0.5,4.4c0.4,1.6,0.7,3.2,0.9,4.9c0,0.8-0.4,1.6-0.4,3.6c0,2.3,0.4,2.4,1.1,7.7
		c0.1,0.6,0,1.2-0.3,1.7c-0.2,0.3-0.6,0.7-0.6,0.9S35.6,62,36.3,62s1.1,0.1,1.3,0c0,0,0.1,0,0.1,0c0.1,0.1,0.2,0.1,0.3,0
		c0.2,0,0.3-0.2,0.3-0.4c0,0,0,0,0,0c0-0.1,0-0.2,0-0.5s-0.1-0.4,0-0.7s-0.7-0.9,0.3-5.6c0.4-1.4,0.3-2.9-0.1-4.3
		c-0.2-1.2-0.1-2.4,0.2-3.5c0.1-0.7,1.3-4.4,0.4-6.5c0.1-0.1,0.3-0.1,0.5-0.1c0.2,0,0.3,0.1,0.5,0.1c-1,2,0.2,5.8,0.3,6.5
		c0.3,1.2,0.4,2.4,0.2,3.5c-0.4,1.4-0.5,2.9-0.1,4.3c1,4.7,0.2,5.1,0.2,5.6s0,0.5,0,0.7c0,0.1,0,0.3,0,0.5c0,0.2,0.1,0.3,0.3,0.4
		c0.1,0.1,0.2,0.1,0.3,0c0,0,0.1,0,0.1,0c0.2,0.1,0.5,0,1.3,0s0.5-0.2,0.5-0.4s-0.5-0.6-0.7-0.9c-0.3-0.5-0.4-1.1-0.3-1.7
		c0.7-5.3,1.1-5.3,1.1-7.7c0-2-0.5-2.8-0.4-3.6c0.2-1.6,0.5-3.3,0.9-4.9c0.5-1.4,0.6-2.9,0.5-4.4c-0.1-1.1-0.5-2.1-1-3.1
		c-0.5-0.8-0.8-1.7-0.9-2.6c0-1.1,0.1-2.2,0.3-3.4c0.2-0.6,0.4-1.2,0.6-1.8c0.1,1,0.3,2.3,0.3,3.2c-0.1,1,0,2.1,0.4,3.1
		c0.6,1.8,1.1,3.2,1.2,3.8c0,0.3,0,0.7,0,1c0,0.4-0.1,0.7-0.4,1c-0.2,0.4-0.2,0.8-0.1,1.2c0.1,0.3,0.1,0.6,0.2,0.9
		c0,0.2,0.2,0.3,0.3,0.2c0.1-0.2,0.1-0.4,0-0.6c0-0.2,0-0.4,0-0.6c0.1-0.2,0.2,0.1,0.2,0.5c0.1,0.3,0.1,0.6,0,0.8
		c-0.1,0.2-0.7,0.7-0.6,0.8s0.2,0,0.3,0s0.1,0,0.2,0c0.2-0.1,0.4-0.2,0.5-0.3c0.3-0.2,0.5-0.6,0.5-0.9
		C46.5,41.2,46.6,40.5,46.5,39.8z"/>
</g>
</svg>
