<?xml version="1.0" encoding="utf-8"?>
<!-- Generator: Adobe Illustrator 24.0.1, SVG Export Plug-In . SVG Version: 6.00 Build 0)  -->
<svg version="1.1" id="Layer_1" xmlns="http://www.w3.org/2000/svg" xmlns:xlink="http://www.w3.org/1999/xlink" x="0px" y="0px"
	 viewBox="0 0 198.3 542" style="enable-background:new 0 0 198.3 542;" xml:space="preserve">
<style type="text/css">
	.st0{fill:#814E2F;}
	.st1{fill:#C2896B;}
	.st2{fill:#724628;}
	.st3{fill:#884E28;}
	.st4{fill:#B9886A;}
	.st5{fill:#814E31;}
	.st6{fill:#FFFFFF;}
	.st7{fill:#88522C;}
	.st8{fill:#A06F46;}
	.st9{fill:#CB8F6A;}
	.st10{fill:#C18B69;}
	.st11{fill:#BF8967;}
	.st12{fill:#553A27;}
	.st13{fill:#593623;}
	.st14{fill:#6D6F6C;}
	.st15{fill:#201F1D;}
	.st16{fill:#FBFFF8;}
	.st17{fill:#1E1E1C;}
	.st18{font-family:"Roboto", sans-serif;}
	.st19{font-size:7px;}
	.st20{fill:#010202;}
	.st21{font-size:7px;}
	.st22{fill:#8E8F24;}
	.st23{fill:none;stroke:#8F8F24;stroke-width:12;stroke-linecap:round;stroke-miterlimit:10;}
	.st24{fill:none;stroke:#FFFFFF;stroke-linecap:round;stroke-miterlimit:10;}
	.st25{font-size:6px;}
	.st26{fill:none;stroke:#8E8F24;stroke-width:0.75;stroke-linecap:round;stroke-miterlimit:10;stroke-dasharray:1,3;}
</style>
<g>
	<g>
		<path class="st0" d="M99.8,286.7c0,0.5-2.4,9.9-1.8,11.9c0.6,2,4.5,4.8,5.1,6.1c0.6,1.3,1.4,13.5,1.3,15.4
			c-0.1,1.9-1.9,3.5-1.9,3.5h-4.8c0,0-0.9,0-0.7-1.2s2.8-2.9,2.6-4.3c-0.1-1.4-1.9-5.8-4.1-9c-2.2-3.2-5.2-5.5-5.2-5.5l-2-1.8"/>
		<path class="st1" d="M98.7,321c-0.3,0-0.6,0-0.9,0c-0.4,0.5-0.8,1-0.9,1.4c-0.1,1.2,0.7,1.2,0.7,1.2h4.8c0,0,0.1-0.1,0.2-0.2
			C101.6,322.3,100.1,321.1,98.7,321z"/>
		<path class="st2" d="M102.5,323.8h-4.9c0,0-0.4,0-0.7-0.3c-0.2-0.3-0.3-0.6-0.2-1.1c0.1-0.6,0.6-1.2,1.2-1.9
			c0.7-0.8,1.5-1.7,1.4-2.4c-0.1-1.4-1.9-5.8-4-8.9c-2.1-3.1-5.2-5.4-5.2-5.4l0,0l-2-1.8l0.3-0.3l2,1.8c0.2,0.1,3.2,2.4,5.3,5.5
			c2.2,3.3,4,7.7,4.1,9.1c0.1,0.9-0.7,1.8-1.5,2.7c-0.5,0.6-1.1,1.2-1.1,1.7c0,0.3,0,0.6,0.1,0.7c0.1,0.2,0.4,0.2,0.4,0.2h4.7
			c0.3-0.3,1.6-1.7,1.8-3.3c0.1-1.8-0.7-14-1.3-15.3c-0.2-0.5-1.1-1.3-1.9-2.2c-1.3-1.3-2.8-2.7-3.2-4c-0.5-1.6,0.9-7.7,1.5-10.6
			c0.2-0.7,0.3-1.3,0.3-1.4l0.4,0c0,0.1-0.1,0.5-0.3,1.4c-0.6,2.7-2,8.9-1.6,10.4c0.3,1.1,1.8,2.5,3,3.8c0.9,0.9,1.8,1.7,2,2.3
			c0.6,1.3,1.5,13.5,1.3,15.5C104.4,322.1,102.7,323.7,102.5,323.8L102.5,323.8z"/>
	</g>
	<g>
		<path class="st3" d="M56.5,301.7c0,0,0.2,13.1,0.5,15.8c0.3,2.8-2.2,5.9-2.2,5.9h-5.7c0,0-1-0.3-0.7-1.4c0.3-1.2,2.6-3.2,2.9-5.8
			c0.3-2.6-2.5-7.2-2.5-7.2l-5.3-10.5"/>
		<path class="st4" d="M50.7,320.7c-0.6-0.1-1.1-0.1-1.6,0c-0.3,0.5-0.6,0.9-0.7,1.3c-0.3,1.2,0.7,1.4,0.7,1.4h5.7
			c0,0,0.1-0.1,0.2-0.2C53.9,322.2,52.4,321,50.7,320.7z"/>
		<path class="st2" d="M54.9,323.6h-5.8l0,0c-0.4-0.1-1.1-0.6-0.9-1.7c0.1-0.5,0.5-1,1-1.7c0.8-1.1,1.7-2.5,1.9-4.1
			c0.3-2.5-2.4-7.1-2.4-7.1l0,0l-5.3-10.5l0.4-0.2l5.3,10.5c0.2,0.3,2.8,4.7,2.5,7.4c-0.2,1.7-1.2,3.1-2,4.3
			c-0.4,0.6-0.8,1.2-0.9,1.5c-0.2,0.9,0.4,1.1,0.5,1.2h5.5c0.4-0.5,2.3-3.3,2.1-5.7c-0.3-2.7-0.5-15.7-0.5-15.8l0.4,0
			c0,0.1,0.2,13.1,0.5,15.8C57.4,320.3,55,323.4,54.9,323.6L54.9,323.6z"/>
	</g>
	<g>
		<path class="st5" d="M26.7,263.6c0,0-0.2-5.3,2.4-5.4c3.6-0.2,3.3,4.9,3.3,4.9"/>
		<path class="st2" d="M26.5,263.6c0-0.2-0.2-5.5,2.6-5.7c0.9-0.1,1.6,0.2,2.2,0.8c1.4,1.4,1.3,4.3,1.3,4.4l-0.4,0
			c0,0,0.1-2.8-1.2-4c-0.5-0.5-1.1-0.7-1.9-0.7c-2.4,0.1-2.2,5.2-2.2,5.2L26.5,263.6z"/>
	</g>
	<path class="st6" d="M74.9,300.5c-1.7,0-3.6-0.3-4.1-0.3c-0.4-0.1-0.7-0.4-0.6-0.8c0.1-0.4,0.4-0.7,0.8-0.6c2,0.3,5.1,0.5,5.9,0.1
		c0.4-0.2,0.8,0,1,0.3c0.2,0.4,0,0.8-0.3,1C77,300.4,76,300.5,74.9,300.5z"/>
	<path class="st6" d="M30,284.4c-0.5,0-1.2-0.2-2-0.6c-0.4-0.2-0.5-0.6-0.4-1c0.2-0.4,0.6-0.5,1-0.4l0,0c0.5,0.2,1.2,0.4,1.4,0.4
		c0.3-0.2,0.7-0.1,0.9,0.3c0.2,0.3,0.1,0.8-0.2,1C30.5,284.4,30.3,284.4,30,284.4z M29.9,283C29.9,283,29.9,283,29.9,283
		C29.9,283,29.9,283,29.9,283z"/>
	<path class="st7" d="M78.2,297.9c-3.9,2.8-20.3,1.6-22.3,1.4s-3.5-2.7-3.5-2.7s-2.3,4.6-11.2-1.7c-9-6.2-9.8-13.7-9.8-13.7
		c-6,2.7-11.5,2-15.7,1.1s-4.6-3.8-4.6-3.8c-0.6,1.6-3.9,1.6-3.9,1.6s3.9,3.9,10.3,4.1s8.1,0.6,11,1.7c2.9,1.2,12.6,12.8,19.9,14.6
		s31.2,1.2,31.2,1.2L78.2,297.9z"/>
	<g>
		<path class="st8" d="M10.2,279.9c0,0-0.7,0.1-2.8,0.3c-2,0.1-2.2,1.4-3.8,1.2c-0.7-0.1-1.7-3.5,1.2-6.8s8.8-4.5,11-5.5
			c2.2-1,8-5.5,13.3-5.8C34.5,262.9,46,268,46,268c1.2,0,31.5-1.9,37.3-0.3c5.8,1.6,8.4,3.6,11.9,8.4c3.5,4.8,4.9,9.3,4.6,11
			c-0.3,1.7-2.3,5.8-4.8,8.4c-2.5,2.6-5.2,4.9-5.2,6.5s2.6,4.5,2.6,5.9s-5.1,12.6-5.9,13.8s-1.7,1.6-1.7,1.6h-6.4
			c0,0-0.9,0.1-0.7-0.7c0.1-0.9,5-4.1,5.1-4.4c0.1-0.3,1.9-6.2,1.7-7.4c-0.1-1.2-5.1-9-5.1-9s-23.9,0.7-31.2-1.2s-17-13.5-19.9-14.6
			c-2.9-1.2-4.6-1.6-11-1.7s-10.3-4.1-10.3-4.1"/>
		<path class="st9" d="M29,263.2c-5.3,0.4-11,4.8-13.1,5.8c-2.2,1-8.1,2.2-11,5.5c-1.4,1.6-1.9,3.1-1.9,4.4c0.6-1.4,1.8-2.9,4-4.5
			c5.9-4.2,5.9-2.3,10.9-5.2C22,266.6,27.6,263.9,29,263.2z"/>
		<path class="st9" d="M46,268c0,0-2.1-0.9-4.9-2c1.6,1,3.5,2.1,5.1,2.4c3.2,0.7,21.5-0.3,32.2,0c3.8,0.1,8.5,1.5,12.9,3.2
			c-2.1-1.8-4.4-2.9-7.9-3.9C77.4,266.1,47.1,268,46,268z"/>
		<path class="st10" d="M80.6,320.7c-0.1,0-0.5-0.1-0.9-0.1c-1.1,0.8-2,1.7-2.1,2c-0.1,0.9,0.7,0.7,0.7,0.7h6.4c0,0,0,0,0,0
			C83.7,322.2,82.3,321,80.6,320.7z"/>
		<path class="st7" d="M92.4,308c0-1.4-2.6-4.3-2.6-5.9s2.8-3.9,5.2-6.5c1.4-1.5,2.6-3.4,3.5-5.1c-4.2,2.4-10.4,9-10.7,10.3
			c-0.4,2.2,3.3,4.9,3.2,7.5c-0.2,3.7-4,10.7-6.5,15h0.2c0,0,0.9-0.4,1.7-1.6S92.4,309.4,92.4,308z"/>
		<path class="st7" d="M78.2,323.6c-0.2,0-0.4,0-0.6-0.2c-0.2-0.2-0.2-0.4-0.2-0.8c0.1-0.6,1.8-1.9,3.9-3.5c0.6-0.4,1.2-0.9,1.3-1
			c0.2-0.5,1.8-6.2,1.7-7.3c-0.1-0.9-3.6-6.6-5-8.8c-1.9,0.1-24.2,0.6-31.1-1.2c-4.7-1.2-10.4-6.5-14.6-10.3
			c-2.3-2.1-4.3-3.9-5.3-4.3c-2.8-1.1-4.5-1.6-10.9-1.7c-6-0.1-9.9-3.6-10.4-4.1c-0.6,0.1-1,0.4-1.4,0.6c-0.5,0.3-1,0.6-1.9,0.5
			c-0.3-0.1-0.6-0.4-0.7-0.9c-0.5-1.4-0.3-3.9,1.8-6.3c2.2-2.5,6-3.8,8.8-4.7c0.9-0.3,1.8-0.6,2.3-0.8c0.5-0.2,1.3-0.7,2.2-1.2
			c2.8-1.7,7.1-4.4,11.3-4.6c5.2-0.3,16,4.4,16.9,4.8c0.2,0,1.1,0,2.3-0.1c7.4-0.4,30-1.5,35-0.2c5.7,1.6,8.3,3.5,12,8.5
			c3.5,4.8,5,9.3,4.7,11.2c-0.3,1.7-2.3,5.8-4.8,8.5c-0.5,0.6-1.1,1.1-1.6,1.7c-1.8,1.8-3.5,3.5-3.5,4.7c0,0.8,0.7,1.9,1.3,3
			c0.7,1.1,1.3,2.2,1.3,2.9c0,1.5-5.1,12.7-6,13.9c-0.9,1.2-1.8,1.6-1.8,1.7l0,0h-6.4C78.3,323.6,78.2,323.6,78.2,323.6z
			 M79.5,301.6l0.1,0.1c0.5,0.8,5,7.9,5.1,9.1c0.2,1.3-1.6,7.3-1.8,7.5c-0.1,0.1-0.3,0.3-1.4,1.1c-1.2,0.9-3.6,2.7-3.7,3.2
			c0,0.2,0,0.3,0.1,0.4c0.1,0.1,0.3,0.1,0.4,0.1l0,0h6.3c0.2-0.1,0.9-0.5,1.6-1.5c0.8-1.1,5.9-12.2,5.9-13.6c0-0.6-0.6-1.7-1.2-2.7
			c-0.7-1.2-1.4-2.3-1.4-3.2c0-1.3,1.7-3,3.6-5c0.5-0.5,1.1-1.1,1.6-1.7c2.5-2.6,4.5-6.7,4.7-8.3c0.3-1.5-1-5.9-4.6-10.9
			c-3.6-4.9-6.2-6.8-11.8-8.3c-4.9-1.3-27.5-0.2-34.9,0.2c-1.3,0.1-2.2,0.1-2.3,0.1h0l0,0c-0.1-0.1-11.5-5.1-16.7-4.8
			c-4,0.2-8.2,2.8-11.1,4.5c-0.9,0.6-1.7,1-2.2,1.3c-0.6,0.3-1.4,0.5-2.4,0.9c-2.7,0.9-6.5,2.2-8.6,4.6c-2.1,2.4-2.1,4.8-1.7,5.8
			c0.1,0.4,0.3,0.6,0.4,0.6c0.7,0.1,1.1-0.1,1.6-0.4c0.5-0.3,1.1-0.7,2.1-0.7c2-0.1,2.7-0.3,2.7-0.3l0.1,0.4c0,0-0.7,0.1-2.7,0.3
			c1.1,0.9,4.6,3.6,9.8,3.7c6.5,0.1,8.2,0.6,11.1,1.8c1.1,0.4,3,2.2,5.4,4.4c4.2,3.8,9.8,9,14.4,10.2c7.1,1.9,30.9,1.2,31.1,1.2
			L79.5,301.6z M82.5,318.1L82.5,318.1L82.5,318.1z"/>
	</g>
	<g>
		<path class="st8" d="M41.6,294c0,0-0.1,9-0.1,13s0.1,9.4,0.1,9.4s-3.8,4.5-3.9,5.8c-0.1,1.3,0.9,1.3,3.6,1.3c2.8,0,3-0.1,3.5-0.4
			c0.4-0.3,1.9-1.9,2.2-4.6c0.3-2.8,1.6-9,3.3-14.2c1.7-5.2,2.2-7.1,2.2-8.7"/>
		<path class="st7" d="M44.8,323.1c0.4-0.3,1.9-1.9,2.2-4.6c0.3-2.8,1.6-9,3.3-14.2c1.7-5.2,2.2-7.1,2.2-8.7l-0.5-0.1
			c-0.5,0.5-1.4,1.5-1.9,2.4c-0.9,1.4-3.2,18.4-4.1,21.9c-0.4,1.5-1,2.7-1.6,3.6C44.5,323.3,44.6,323.2,44.8,323.1z"/>
		<path class="st11" d="M39.7,320.7c-0.5,0-0.9,0.1-1.4,0.2c-0.3,0.6-0.6,1.1-0.6,1.4c-0.1,1.3,0.9,1.3,3.6,1.3
			c1.7,0,2.5-0.1,2.9-0.2C43.1,322.2,41.4,320.7,39.7,320.7z"/>
		<path class="st7" d="M41.3,323.8c-2.1,0-3.1,0-3.6-0.5c-0.2-0.2-0.3-0.6-0.2-1c0.1-1.3,3.3-5.2,3.9-5.9c0-0.7-0.1-5.6-0.1-9.3
			c0-4,0.1-13,0.1-13l0.4,0c0,0.1-0.1,9-0.1,13c0,4,0.1,9.4,0.1,9.4l0,0.1l-0.1,0.1c-1,1.2-3.8,4.7-3.9,5.7c0,0.4,0.1,0.6,0.1,0.7
			c0.3,0.4,1.5,0.4,3.3,0.4c2.8,0,3-0.1,3.4-0.4c0.3-0.2,1.8-1.7,2.1-4.5c0.3-3,1.7-9.3,3.3-14.3c1.7-5,2.2-7,2.2-8.6h0.4
			c0,1.7-0.5,3.7-2.2,8.8c-1.7,5-3,11.2-3.3,14.2c-0.3,2.9-1.9,4.5-2.3,4.8C44.4,323.6,44,323.8,41.3,323.8z"/>
	</g>
	<g>
		<g>
			<path class="st8" d="M32.2,268.3c0,0,4.5-3,4.6-3.8c0.1-0.7,0.3-3.5,0-4.1c-0.3-0.6-1.6-2.5-2.6-2.5s-4.5,2.9-5.1,7.5"/>
			<path class="st7" d="M32.3,268.5l-0.2-0.4c2.1-1.4,4.5-3.2,4.5-3.6c0.2-0.8,0.3-3.4,0-3.9c-0.4-0.7-1.6-2.3-2.4-2.3
				c-0.8,0-4.3,2.8-4.9,7.3l-0.4-0.1c0.3-2.6,1.5-4.5,2.4-5.6c1-1.2,2.2-2.1,2.9-2.1c1.2,0,2.6,2.2,2.8,2.6c0.3,0.7,0.2,3.5,0,4.2
				C36.9,265.3,33.4,267.7,32.3,268.5z"/>
		</g>
		<path class="st12" d="M30.7,266.9c0,0,1.6-5.4,2.9-6.1c1.3-0.7,0.6,2.9-0.1,3.9c-0.7,1-1.9,2.2-1.9,2.2"/>
	</g>
	<g>
		<g>
			<ellipse class="st6" cx="21.6" cy="272.5" rx="2.7" ry="3.1"/>
			<path class="st13" d="M21.6,275.8c-1.6,0-2.9-1.5-2.9-3.3c0-1.8,1.3-3.3,2.9-3.3c1.6,0,2.9,1.5,2.9,3.3
				C24.5,274.3,23.2,275.8,21.6,275.8z M21.6,269.6c-1.4,0-2.5,1.3-2.5,2.9s1.1,2.9,2.5,2.9c1.4,0,2.5-1.3,2.5-2.9
				S23,269.6,21.6,269.6z"/>
		</g>
		<ellipse class="st14" cx="20.9" cy="272.5" rx="2" ry="2.3"/>
		<ellipse class="st15" cx="20.2" cy="272.5" rx="1.1" ry="1.5"/>
		<ellipse class="st16" cx="21.2" cy="271.7" rx="0.6" ry="0.5"/>
	</g>
	<path class="st6" d="M92.5,283.2c-0.2,0-0.4-0.1-0.6-0.3c-0.7-0.9-1.8-2.2-2.2-2.5c-0.7-0.4-7.2-1.8-10.6-1.9
		c-1.5-0.1-5.5,0.8-9.8,1.7c-5.4,1.1-11.5,2.4-14.9,2.4c-6.2,0-11.1-3.3-11.3-3.5c-0.3-0.2-0.4-0.7-0.2-1c0.2-0.3,0.7-0.4,1-0.2l0,0
		c0,0,4.7,3.2,10.5,3.2c3.3,0,9.3-1.3,14.6-2.4c4.6-0.9,8.5-1.8,10.2-1.7c3.2,0.1,10.6,1.5,11.4,2.2c0.6,0.5,2.2,2.4,2.5,2.7
		c0.3,0.3,0.2,0.8-0.1,1C92.8,283.2,92.7,283.2,92.5,283.2z"/>
	<path class="st6" d="M80.8,286.1c-0.3,0-0.5-0.1-0.6-0.3c-0.1-0.1-0.4-0.3-1.4-0.6c-1.4-0.5-9.1-0.2-11.5,0
		c-2.1,0.2-3.2-1.1-3.2-1.1c-0.3-0.3-0.2-0.8,0.1-1c0.3-0.3,0.8-0.2,1,0.1c0,0,0.7,0.7,2,0.6c1.2-0.1,10-0.6,12,0
		c1.6,0.5,2.2,1,2.2,1.6C81.5,285.8,81.2,286.1,80.8,286.1z M80,285.4C80,285.4,80,285.4,80,285.4C80,285.4,80,285.4,80,285.4z
		 M80,285.4C80,285.4,80,285.4,80,285.4C80,285.4,80,285.4,80,285.4z M80,285.4C80,285.4,80,285.4,80,285.4
		C80,285.4,80,285.4,80,285.4z M80,285.4C80,285.4,80,285.4,80,285.4C80,285.4,80,285.4,80,285.4z M80,285.4
		C80,285.4,80,285.4,80,285.4C80,285.4,80,285.4,80,285.4z M80,285.4C80,285.4,80,285.4,80,285.4C80,285.4,80,285.4,80,285.4z
		 M80,285.4C80,285.4,80,285.4,80,285.4C80,285.4,80,285.4,80,285.4z M80,285.4C80,285.4,80,285.4,80,285.4
		C80,285.4,80,285.4,80,285.4z M80,285.4C80,285.4,80,285.4,80,285.4C80,285.4,80,285.4,80,285.4z M80,285.4
		C80,285.4,80,285.4,80,285.4C80,285.4,80,285.4,80,285.4z M80,285.4C80,285.4,80,285.4,80,285.4C80,285.4,80,285.4,80,285.4z"/>
	<path class="st6" d="M81.8,298.1c0,0-1-0.6-5-1.2c-4.4-0.6-13.4-0.4-13.5-0.4c0,0,0,0,0,0c-0.4,0-0.7-0.3-0.7-0.7
		c0-0.4,0.3-0.7,0.7-0.7c0.4,0,9.2-0.1,13.7,0.4c4.5,0.6,5.6,1.3,5.7,1.5L81.8,298.1C81.8,298.1,81.8,298.1,81.8,298.1z"/>
	<path class="st6" d="M76.3,293.8c0,0-0.1,0-0.1,0c0,0-2.2-0.4-4.6-0.9c-2.4-0.4-4.6-0.9-4.7-0.9c-0.4-0.1-0.6-0.5-0.6-0.9
		c0.1-0.4,0.5-0.6,0.9-0.6c0,0,2.2,0.4,4.6,0.9c2.4,0.4,4.6,0.9,4.7,0.9c0.4,0.1,0.6,0.5,0.6,0.9C76.9,293.6,76.6,293.8,76.3,293.8z
		"/>
	<path class="st6" d="M68.3,289.5c-2.3,0-5-0.8-5.1-0.9c-0.4-0.1-0.6-0.5-0.5-0.9c0.1-0.4,0.5-0.6,0.9-0.5c0,0,3.6,1.1,5.7,0.7
		c2.2-0.4,3.6-1,3.6-1c0.4-0.1,0.8,0,0.9,0.4c0.1,0.4,0,0.8-0.4,0.9c-0.1,0-1.5,0.6-3.9,1.1C69.2,289.5,68.7,289.5,68.3,289.5z"/>
	<path class="st6" d="M85,295.1c-0.1,0-0.1,0-0.2,0c-2.1-0.5-4.3-3-4.6-3.3c-0.3-0.3-0.2-0.8,0.1-1c0.3-0.3,0.8-0.2,1,0.1
		c0.6,0.7,2.5,2.5,3.8,2.8c0.4,0.1,0.6,0.5,0.5,0.9C85.6,294.9,85.3,295.1,85,295.1z"/>
	<path class="st6" d="M74.6,300.5c-1.8,0-3.5-0.4-3.6-0.4c-0.4-0.1-0.6-0.5-0.5-0.9c0.1-0.4,0.5-0.6,0.9-0.5l0,0
		c0.9,0.2,3.7,0.7,5.1,0.1c0.4-0.1,0.8,0.1,0.9,0.4c0.1,0.4-0.1,0.8-0.4,0.9C76.3,300.4,75.4,300.5,74.6,300.5z"/>
	<path class="st6" d="M63.1,300.9c-0.5,0-1-0.2-1.2-0.2c-0.4-0.1-0.6-0.5-0.5-0.9c0.1-0.4,0.5-0.6,0.9-0.5l0,0
		c0.3,0.1,0.7,0.2,0.9,0.1c0.4-0.1,0.8,0.1,0.9,0.5c0.1,0.4-0.1,0.8-0.5,0.9C63.4,300.9,63.2,300.9,63.1,300.9z"/>
	<path class="st6" d="M90.6,292.4c-3.2,0-5.1-1.7-5.2-1.7c-0.3-0.3-0.3-0.7-0.1-1c0.3-0.3,0.7-0.3,1-0.1c0.1,0.1,2.1,1.8,5.5,1.3
		c0.4-0.1,0.8,0.2,0.8,0.6c0.1,0.4-0.2,0.8-0.6,0.8C91.5,292.4,91,292.4,90.6,292.4z"/>
	<path class="st6" d="M94.5,291.2c-0.3,0-0.5-0.1-0.6-0.4c-0.3-0.6-2.1-1.8-3.2-2.5c-0.3-0.2-0.5-0.7-0.2-1c0.2-0.3,0.7-0.5,1-0.2
		c0.5,0.3,3.1,1.9,3.7,3c0.2,0.3,0.1,0.8-0.3,1C94.8,291.1,94.7,291.2,94.5,291.2z"/>
	<path class="st6" d="M82.9,283.2c-2.3,0-4.8-1.2-4.9-1.2c-0.4-0.2-0.5-0.6-0.3-1c0.2-0.4,0.6-0.5,1-0.3c0,0,2.4,1.1,4.3,1.1
		c0.4,0,0.7,0.3,0.7,0.7S83.3,283.2,82.9,283.2z"/>
	<path class="st6" d="M91.4,277.1c-0.2,0-0.4-0.1-0.6-0.3c-1.3-1.8-2.7-2.3-2.7-2.4c-0.4-0.1-0.6-0.6-0.4-0.9
		c0.1-0.4,0.6-0.6,0.9-0.4c0.1,0,1.8,0.7,3.4,2.9c0.2,0.3,0.2,0.8-0.2,1C91.6,277.1,91.5,277.1,91.4,277.1z"/>
	<path class="st6" d="M87.9,284.7c-0.2,0-0.4-0.1-0.5-0.2c-0.7-0.7-1.5-1-1.6-1c-0.4-0.1-0.6-0.5-0.5-0.9c0.1-0.4,0.5-0.6,0.9-0.5
		c0,0,1.2,0.3,2.2,1.3c0.3,0.3,0.3,0.7,0,1C88.2,284.6,88.1,284.7,87.9,284.7z"/>
	<path class="st6" d="M97,284.4c-0.2,0-0.4-0.1-0.5-0.2c-0.7-0.7-1.5-1-1.6-1c-0.4-0.1-0.6-0.5-0.5-0.9c0.1-0.4,0.5-0.6,0.9-0.5
		c0,0,1.2,0.3,2.2,1.3c0.3,0.3,0.3,0.7,0,1C97.4,284.3,97.2,284.4,97,284.4z"/>
	<path class="st6" d="M94.7,280.3c-0.2,0-0.4-0.1-0.5-0.2c-0.7-0.7-1.5-1-1.6-1c-0.4-0.1-0.6-0.5-0.5-0.9c0.1-0.4,0.5-0.6,0.9-0.5
		c0,0,1.2,0.3,2.2,1.3c0.3,0.3,0.3,0.7,0,1C95.1,280.2,94.9,280.3,94.7,280.3z"/>
	<path class="st6" d="M88.3,298.5c-1.9,0-3.6-0.2-3.7-0.2c-0.4,0-0.7-0.4-0.6-0.8c0-0.4,0.4-0.7,0.8-0.6c0,0,3.8,0.4,6.2,0
		c0.4-0.1,0.8,0.2,0.8,0.6c0.1,0.4-0.2,0.8-0.6,0.8C90.3,298.4,89.3,298.5,88.3,298.5z"/>
	<path class="st6" d="M77.3,290.9c-0.2,0-0.4-0.1-0.6-0.3c-0.3-0.4-1.3-0.9-1.9-1.1c-0.4-0.1-0.6-0.6-0.4-0.9
		c0.1-0.4,0.6-0.6,0.9-0.4c0.2,0.1,1.8,0.7,2.5,1.5c0.3,0.3,0.2,0.8-0.1,1C77.6,290.8,77.5,290.9,77.3,290.9z"/>
	<path class="st6" d="M87,302.1c-0.7,0-1.4-0.1-2-0.3c-0.4-0.2-0.5-0.6-0.4-0.9c0.2-0.4,0.6-0.5,0.9-0.4c0.8,0.3,2.6,0.2,3.1,0.1
		c0.4-0.1,0.8,0.2,0.8,0.6c0.1,0.4-0.2,0.8-0.6,0.8C88.7,301.9,87.9,302.1,87,302.1z"/>
	<path class="st6" d="M89,310.2c-0.7,0-1.4-0.1-2-0.3c-0.4-0.2-0.5-0.6-0.4-0.9c0.2-0.4,0.6-0.5,0.9-0.4c0.8,0.3,2.6,0.2,3.1,0.1
		c0.4-0.1,0.8,0.2,0.8,0.6c0.1,0.4-0.2,0.8-0.6,0.8C90.7,310,89.9,310.2,89,310.2z"/>
	<path class="st6" d="M95.1,304.1c-0.3,0-0.6-0.2-0.7-0.5c-0.1-0.4,0.1-0.8,0.5-0.9c0.1,0,2.1-0.6,3.8-0.6c0.4,0,0.7,0.3,0.7,0.7
		s-0.3,0.7-0.7,0.7c-1.5,0-3.4,0.5-3.4,0.6C95.3,304.1,95.2,304.1,95.1,304.1z"/>
	<path class="st6" d="M83.5,305.6c-0.7,0-1.2-0.1-1.3-0.1c-0.4-0.1-0.7-0.4-0.6-0.8c0.1-0.4,0.4-0.7,0.8-0.6c0,0,2.7,0.4,4.8-0.8
		c0.3-0.2,0.8-0.1,1,0.3c0.2,0.3,0.1,0.8-0.3,1C86.4,305.4,84.7,305.6,83.5,305.6z"/>
	<path class="st6" d="M55,305.8c-1.2,0-3-0.3-3.2-0.3c-0.4-0.1-0.7-0.4-0.6-0.8c0.1-0.4,0.4-0.7,0.8-0.6c1,0.2,2.7,0.4,3.4,0.3
		c0.4-0.1,0.8,0.2,0.8,0.6c0.1,0.4-0.2,0.8-0.6,0.8C55.5,305.8,55.3,305.8,55,305.8z"/>
	<path class="st6" d="M48.6,305.5c-0.2,0-0.5-0.1-0.6-0.4c-1.2-2.1-4.1-2.5-4.1-2.5c-0.4-0.1-0.7-0.4-0.6-0.8
		c0.1-0.4,0.4-0.7,0.8-0.6c0.1,0,3.6,0.5,5.2,3.2c0.2,0.3,0.1,0.8-0.3,1C48.8,305.5,48.7,305.5,48.6,305.5z"/>
	<path class="st6" d="M45.7,310.2c-0.3,0-0.5-0.1-0.6-0.4c-0.5-0.9-2.2-2.2-2.8-2.7c-0.3-0.2-0.4-0.7-0.2-1c0.2-0.3,0.7-0.4,1-0.2
		c0.3,0.2,2.5,1.7,3.3,3.1c0.2,0.3,0.1,0.8-0.3,1C45.9,310.1,45.8,310.2,45.7,310.2z"/>
	<path class="st6" d="M76.6,273.3c-1.9,0-4.9-0.1-9.2-0.3c-1.4-0.1-3.2,0-5.2,0.1c-2.9,0.1-5.9,0.2-7.9-0.1c-3.4-0.4-7.5-2.9-7.7-3
		c-0.3-0.2-0.5-0.7-0.2-1c0.2-0.3,0.7-0.5,1-0.2c0,0,4,2.4,7.1,2.8c1.9,0.2,4.8,0.2,7.7,0.1c2-0.1,3.9-0.1,5.3-0.1
		c6.9,0.3,10.8,0.3,11.4,0.2c0.3-0.1,1.1-0.4,2-0.8c2.1-0.9,3.6-1.5,4.3-1.5c0.4,0,0.7,0.3,0.7,0.7s-0.3,0.7-0.7,0.7
		c-0.5,0-2.6,0.9-3.7,1.4c-1,0.4-1.7,0.8-2.2,0.9C78.9,273.3,78,273.3,76.6,273.3z"/>
	<path class="st6" d="M49,277.1C49,277.1,49,277.1,49,277.1c-1.3-0.1-3.4-0.8-5.3-1.5c-1-0.3-1.9-0.6-2.7-0.9
		c-2.3-0.7-4.6-0.4-4.6-0.4c-0.4,0-0.8-0.2-0.8-0.6c0-0.4,0.2-0.8,0.6-0.8c0.1,0,2.6-0.3,5.2,0.5c0.8,0.2,1.8,0.6,2.8,0.9
		c1.9,0.6,3.9,1.3,4.9,1.4c0.4,0,0.7,0.4,0.7,0.8C49.7,276.8,49.4,277.1,49,277.1z"/>
	<path class="st6" d="M61.3,288.4c-0.1,0-0.2,0-0.3-0.1c0,0-1.6-0.8-3.7-1.4c-2.2-0.6-6.3-0.6-7.7-0.6c-1.7,0-3.7-1.6-3.9-1.7
		c-0.3-0.2-0.4-0.7-0.1-1c0.2-0.3,0.7-0.4,1-0.1l0,0c0.7,0.6,2.2,1.4,3,1.4c1.5,0,5.6,0,8,0.6c2.4,0.6,4,1.5,4.1,1.5
		c0.4,0.2,0.5,0.6,0.3,1C61.9,288.3,61.6,288.4,61.3,288.4z"/>
	<path class="st6" d="M53.7,270.7c-0.4,0-0.7-0.3-0.7-0.7c0-0.4,0.3-0.8,0.7-0.8c0.1,0,8.1-0.7,14-0.9c5.9-0.1,12.6,0.4,12.7,0.4
		c0.4,0,0.7,0.4,0.7,0.8c0,0.4-0.4,0.7-0.8,0.7c-0.1,0-6.7-0.6-12.5-0.4C61.7,270,53.8,270.7,53.7,270.7
		C53.7,270.7,53.7,270.7,53.7,270.7z"/>
	<path class="st6" d="M41.8,281.8c-0.2,0-0.4-0.1-0.5-0.2c0,0-1-1.1-2.7-1.8c-1.4-0.7-4.4-0.7-5.5-0.7c-0.4,0-0.7-0.3-0.8-0.7
		c0-0.4,0.3-0.7,0.7-0.8c0.2,0,4.1-0.1,6.1,0.8c2,0.9,3.1,2.2,3.1,2.2c0.3,0.3,0.2,0.8-0.1,1C42.1,281.7,41.9,281.8,41.8,281.8z"/>
	<path class="st6" d="M42.4,284.8c-0.1,0-0.2,0-0.3-0.1c0,0-1.4-0.6-2.8-0.8c-1.5-0.3-4.1-1.4-4.2-1.5c-0.4-0.2-0.5-0.6-0.4-1
		c0.2-0.4,0.6-0.5,1-0.4c0,0,2.6,1.1,3.9,1.4c1.5,0.3,3,0.9,3,0.9c0.4,0.1,0.6,0.6,0.4,0.9C42.9,284.6,42.6,284.8,42.4,284.8z"/>
	<path class="st6" d="M58.8,295.8c-0.5,0-1.1,0-1.7-0.1c-2.3-0.3-4.4-1.8-4.5-1.9c-0.3-0.2-0.4-0.7-0.2-1c0.2-0.3,0.7-0.4,1-0.2
		c0,0,1.9,1.4,3.9,1.6c1.6,0.2,2.1,0.1,2.2,0.1c0.3-0.2,0.7-0.1,0.9,0.2c0.2,0.3,0.1,0.8-0.2,1C59.9,295.7,59.4,295.8,58.8,295.8z
		 M59.4,294.3C59.4,294.3,59.4,294.3,59.4,294.3C59.4,294.3,59.4,294.3,59.4,294.3z M59.4,294.3C59.4,294.3,59.4,294.3,59.4,294.3
		C59.4,294.3,59.4,294.3,59.4,294.3z M59.4,294.3L59.4,294.3L59.4,294.3z"/>
	<path class="st6" d="M62.2,292.1c-0.4,0-0.9,0-1.5-0.1c-1.9-0.2-4.1-1.8-4.2-1.9c-0.3-0.2-0.4-0.7-0.1-1c0.2-0.3,0.7-0.4,1-0.1l0,0
		c0.5,0.4,2.1,1.5,3.4,1.6c1.6,0.1,2.3,0,2.3,0c0.4-0.1,0.8,0.2,0.8,0.6c0.1,0.4-0.2,0.8-0.6,0.8C63.3,292,62.9,292.1,62.2,292.1z"
		/>
	<path class="st6" d="M49.6,289.6c-0.3,0-0.5-0.2-0.7-0.4c-0.2-0.4,0-0.8,0.4-1c0.1,0,1.8-0.8,3.4-0.6c1.5,0.1,2.1,0.3,2.1,0.3
		c0.4,0.1,0.6,0.5,0.5,0.9c-0.1,0.4-0.5,0.6-0.9,0.5c0,0-0.6-0.1-1.9-0.3c-1.2-0.1-2.7,0.5-2.7,0.5
		C49.8,289.6,49.7,289.6,49.6,289.6z"/>
	<path class="st6" d="M42.6,288c-0.2,0-0.3,0-0.4-0.2c-1.7-1.3-4.3-1.7-4.3-1.7c-0.4-0.1-0.7-0.4-0.6-0.8c0.1-0.4,0.4-0.7,0.8-0.6
		c0.1,0,3,0.5,5,2c0.3,0.2,0.4,0.7,0.1,1C43.1,287.9,42.9,288,42.6,288z"/>
	<path class="st6" d="M36.3,290.3c-0.1,0-0.2,0-0.3-0.1c-2.4-1.1-4.2-2.8-4.3-2.9c-0.3-0.3-0.3-0.7,0-1c0.3-0.3,0.7-0.3,1,0
		c0,0,1.7,1.7,3.8,2.6c0.4,0.2,0.5,0.6,0.4,1C36.8,290.1,36.6,290.3,36.3,290.3z"/>
	<path class="st6" d="M58.9,278.8c-2.3,0-3.9-0.5-4-0.5c-0.4-0.1-0.6-0.5-0.5-0.9c0.1-0.4,0.5-0.6,0.9-0.5l0,0c0,0,2.6,0.8,5.9,0.3
		c0.4-0.1,0.8,0.2,0.8,0.6c0.1,0.4-0.2,0.8-0.6,0.8C60.6,278.7,59.7,278.8,58.9,278.8z"/>
	<path class="st6" d="M55.9,275.7c-3.7,0-6.1-1.4-6.2-1.4c-0.3-0.2-0.5-0.6-0.3-1c0.2-0.3,0.6-0.5,1-0.3c0,0,2.4,1.3,6,1.2
		c0.4,0,0.7,0.3,0.8,0.7c0,0.4-0.3,0.7-0.7,0.8C56.3,275.7,56.1,275.7,55.9,275.7z"/>
	<path class="st6" d="M43.5,271.8c-0.1,0-0.2,0-0.2,0c-0.6-0.2-1.7-0.3-2.1-0.3c-0.4,0-0.7-0.3-0.7-0.7c0-0.4,0.3-0.7,0.7-0.7
		c0.2,0,1.6,0,2.5,0.3c0.4,0.1,0.6,0.5,0.5,0.9C44.1,271.6,43.8,271.8,43.5,271.8z"/>
	<path class="st6" d="M73.2,276.8c-0.3,0-0.6-0.2-0.7-0.6c-0.1-0.4,0.2-0.8,0.6-0.9c0,0,2.1-0.4,3.2-1c0.4-0.2,0.8,0,1,0.3
		c0.2,0.4,0,0.8-0.3,1c-1.2,0.6-3.4,1.1-3.5,1.1C73.3,276.8,73.3,276.8,73.2,276.8z"/>
	<path class="st6" d="M13.9,282.5c-0.2,0-0.3-0.1-0.4-0.1c0,0,0,0,0,0c-0.3,0-0.6-0.2-0.7-0.5c-0.1-0.4,0.1-0.8,0.5-0.9
		c0.5-0.2,0.8,0,1,0.1c0.3,0.2,0.4,0.5,0.4,0.7C14.7,282.2,14.3,282.5,13.9,282.5z"/>
	<path class="st6" d="M18.3,282.3c-0.2,0-0.3-0.1-0.4-0.1c0,0,0,0,0,0c-0.3,0-0.6-0.2-0.7-0.5c-0.1-0.4,0.1-0.8,0.5-0.9
		c0.5-0.2,0.8,0,1,0.1c0.3,0.2,0.4,0.5,0.4,0.7C19,282,18.7,282.3,18.3,282.3z"/>
	<path class="st6" d="M31.1,273.8c-0.4,0-0.7-0.3-0.7-0.7c0-0.4,0.3-0.7,0.6-0.7c0,0,0.1-0.1,0.1-0.1c0.2-0.3,0.7-0.4,1-0.2
		c0.3,0.2,0.4,0.7,0.2,1C32.1,273.2,31.7,273.8,31.1,273.8z M31.1,272.3C31.1,272.3,31.1,272.3,31.1,272.3
		C31.1,272.3,31.1,272.3,31.1,272.3z"/>
	<path class="st6" d="M38.9,268.1c-0.4,0-0.7-0.3-0.7-0.7c0-0.4,0.3-0.7,0.6-0.7c0,0,0.1-0.1,0.1-0.1c0.2-0.3,0.7-0.4,1-0.2
		c0.3,0.2,0.4,0.7,0.2,1C39.9,267.6,39.5,268.1,38.9,268.1z M38.9,266.7C38.9,266.7,38.9,266.7,38.9,266.7
		C38.9,266.7,38.9,266.7,38.9,266.7z"/>
	<path class="st6" d="M36.9,271.3c-0.4,0-0.7-0.3-0.7-0.7c0-0.4,0.3-0.7,0.6-0.7c0,0,0.1-0.1,0.1-0.1c0.2-0.3,0.7-0.4,1-0.2
		c0.3,0.2,0.4,0.7,0.2,1C37.9,270.7,37.5,271.3,36.9,271.3z M36.9,269.9C36.9,269.9,36.9,269.9,36.9,269.9
		C36.9,269.9,36.9,269.9,36.9,269.9z"/>
	<path class="st6" d="M47.1,273.6c-0.4,0-0.7-0.3-0.7-0.7c0-0.4,0.3-0.7,0.6-0.7c0,0,0.1-0.1,0.1-0.1c0.2-0.3,0.7-0.4,1-0.2
		c0.3,0.2,0.4,0.7,0.2,1C48.2,273.1,47.8,273.6,47.1,273.6z M47.1,272.2C47.1,272.2,47.1,272.2,47.1,272.2
		C47.1,272.2,47.1,272.2,47.1,272.2z"/>
	<path class="st6" d="M51.9,278.3c-0.4,0-0.7-0.3-0.7-0.7c0-0.4,0.3-0.7,0.6-0.7c0,0,0.1-0.1,0.1-0.1c0.2-0.3,0.7-0.4,1-0.2
		c0.3,0.2,0.4,0.7,0.2,1C53,277.7,52.6,278.3,51.9,278.3z M51.9,276.8C51.9,276.8,51.9,276.8,51.9,276.8
		C51.9,276.8,51.9,276.8,51.9,276.8z"/>
	<path class="st6" d="M62.8,275.7c-0.4,0-0.7-0.3-0.7-0.7c0-0.4,0.3-0.7,0.6-0.7c0,0,0.1-0.1,0.1-0.1c0.2-0.3,0.7-0.4,1-0.2
		c0.3,0.2,0.4,0.7,0.2,1C63.9,275.1,63.4,275.7,62.8,275.7z M62.8,274.2C62.8,274.2,62.8,274.2,62.8,274.2
		C62.8,274.2,62.8,274.2,62.8,274.2z"/>
	<path class="st6" d="M80.2,288.7c-0.3,0-0.5-0.1-0.6-0.4c0,0-0.1-0.1-0.2-0.1c-0.4-0.1-0.6-0.5-0.5-0.9c0.1-0.4,0.5-0.6,0.9-0.5
		c0.2,0.1,0.9,0.3,1.1,0.9c0.1,0.4-0.1,0.8-0.5,0.9C80.3,288.7,80.3,288.7,80.2,288.7z M79.5,288.2
		C79.5,288.2,79.5,288.2,79.5,288.2C79.5,288.2,79.5,288.2,79.5,288.2z"/>
	<path class="st6" d="M81.8,301.2c-0.3,0-0.5-0.1-0.6-0.4c0,0-0.1-0.1-0.2-0.1c-0.4-0.1-0.6-0.5-0.5-0.9c0.1-0.4,0.5-0.6,0.9-0.5
		c0.2,0.1,0.9,0.3,1.1,0.9c0.1,0.4-0.1,0.8-0.5,0.9C81.9,301.2,81.9,301.2,81.8,301.2z M81.1,300.7
		C81.1,300.7,81.1,300.7,81.1,300.7C81.1,300.7,81.1,300.7,81.1,300.7z"/>
	<path class="st6" d="M89.8,307.6c-0.3,0-0.5-0.1-0.6-0.4c0,0-0.1-0.1-0.2-0.1c-0.4-0.1-0.6-0.5-0.5-0.9c0.1-0.4,0.5-0.6,0.9-0.5
		c0.2,0.1,0.9,0.3,1.1,0.9c0.1,0.4-0.1,0.8-0.5,0.9C89.9,307.5,89.8,307.6,89.8,307.6z M89.1,307C89.1,307,89.1,307,89.1,307
		C89.1,307,89.1,307,89.1,307z"/>
	<path class="st6" d="M86.3,313.5c-0.3,0-0.5-0.1-0.6-0.4c0,0-0.1-0.1-0.2-0.1c-0.4-0.1-0.6-0.5-0.5-0.9c0.1-0.4,0.5-0.6,0.9-0.5
		c0.2,0.1,0.9,0.3,1.1,0.9c0.1,0.4-0.1,0.8-0.5,0.9C86.4,313.5,86.4,313.5,86.3,313.5z M85.6,313C85.6,313,85.6,313,85.6,313
		C85.6,313,85.6,313,85.6,313z"/>
	<path class="st6" d="M84.8,308.1c-0.3,0-0.5-0.1-0.6-0.4c0,0-0.1-0.1-0.2-0.1c-0.4-0.1-0.6-0.5-0.5-0.9c0.1-0.4,0.5-0.6,0.9-0.5
		c0.2,0.1,0.9,0.3,1.1,0.9c0.1,0.4-0.1,0.8-0.5,0.9C85,308.1,84.9,308.1,84.8,308.1z M84.1,307.6C84.1,307.6,84.1,307.6,84.1,307.6
		C84.1,307.6,84.1,307.6,84.1,307.6z"/>
	<path class="st6" d="M92.5,304.1c-0.3,0-0.5-0.1-0.6-0.4c0,0-0.1-0.1-0.2-0.1c-0.4-0.1-0.6-0.5-0.5-0.9c0.1-0.4,0.5-0.6,0.9-0.5
		c0.2,0.1,0.9,0.3,1.1,0.9c0.1,0.4-0.1,0.8-0.5,0.9C92.7,304.1,92.6,304.1,92.5,304.1z M91.8,303.6
		C91.8,303.6,91.8,303.6,91.8,303.6C91.8,303.6,91.8,303.6,91.8,303.6z"/>
	<path class="st6" d="M91.4,285.7c-0.3,0-0.5-0.1-0.6-0.4c0,0-0.1-0.1-0.2-0.1c-0.4-0.1-0.6-0.5-0.5-0.9c0.1-0.4,0.5-0.6,0.9-0.5
		c0.2,0.1,0.9,0.3,1.1,0.9c0.1,0.4-0.1,0.8-0.5,0.9C91.5,285.7,91.4,285.7,91.4,285.7z M90.7,285.2
		C90.7,285.2,90.7,285.2,90.7,285.2C90.7,285.2,90.7,285.2,90.7,285.2z"/>
	<path class="st6" d="M94.1,287c-0.3,0-0.5-0.1-0.6-0.4c0,0-0.1-0.1-0.2-0.1c-0.4-0.1-0.6-0.5-0.5-0.9c0.1-0.4,0.5-0.6,0.9-0.5
		c0.2,0.1,0.9,0.3,1.1,0.9c0.1,0.4-0.1,0.8-0.5,0.9C94.3,287,94.2,287,94.1,287z M93.4,286.5C93.4,286.5,93.4,286.5,93.4,286.5
		C93.4,286.5,93.4,286.5,93.4,286.5z"/>
	<path class="st6" d="M96,297.6c-0.3,0-0.5-0.1-0.6-0.4c0,0-0.1-0.1-0.2-0.1c-0.4-0.1-0.6-0.5-0.5-0.9c0.1-0.4,0.5-0.6,0.9-0.5
		c0.2,0.1,0.9,0.3,1.1,0.9c0.1,0.4-0.1,0.8-0.5,0.9C96.1,297.5,96.1,297.6,96,297.6z M95.3,297C95.3,297,95.3,297,95.3,297
		C95.3,297,95.3,297,95.3,297z"/>
	<path class="st6" d="M94.5,294.5c-0.3,0-0.5-0.1-0.6-0.4c0,0-0.1-0.1-0.2-0.1c-0.4-0.1-0.6-0.5-0.5-0.9c0.1-0.4,0.5-0.6,0.9-0.5
		c0.2,0.1,0.9,0.3,1.1,0.9c0.1,0.4-0.1,0.8-0.5,0.9C94.7,294.5,94.6,294.5,94.5,294.5z M93.9,294C93.9,294,93.9,294,93.9,294
		C93.9,294,93.9,294,93.9,294z"/>
	<path class="st6" d="M88.6,295.1c-0.4,0-0.7-0.3-0.7-0.6c-0.1-0.4,0.2-0.8,0.6-0.8c0,0,0.6-0.1,1.2-0.1c0.9-0.1,1.8-0.1,2,0.6
		c0.1,0.4-0.1,0.8-0.5,0.9c-0.2,0.1-0.5,0-0.7-0.1c-0.3,0-1.2,0-1.9,0.1C88.7,295.1,88.6,295.1,88.6,295.1z M90.4,294.6
		C90.4,294.6,90.4,294.6,90.4,294.6C90.4,294.6,90.4,294.6,90.4,294.6z"/>
	<path class="st6" d="M98,306.7c-0.2,0-0.3,0-0.4-0.1c-0.1,0-0.3,0-0.4,0c-0.4,0-0.7-0.3-0.8-0.7s0.3-0.7,0.7-0.8
		c0.6,0,1.4,0,1.6,0.6c0.1,0.4-0.1,0.8-0.5,0.9C98.2,306.7,98.1,306.7,98,306.7z M97.3,306.2L97.3,306.2
		C97.3,306.2,97.3,306.2,97.3,306.2z M97.3,306.2C97.3,306.2,97.3,306.2,97.3,306.2C97.3,306.2,97.3,306.2,97.3,306.2z"/>
	<path class="st6" d="M101.4,307.8c-0.2,0-0.3,0-0.4-0.1c-0.1,0-0.3,0-0.4,0c-0.4,0-0.7-0.3-0.8-0.7c0-0.4,0.3-0.7,0.7-0.8
		c0.6,0,1.4,0,1.6,0.6c0.1,0.4-0.1,0.8-0.5,0.9C101.5,307.8,101.4,307.8,101.4,307.8z M100.7,307.3L100.7,307.3
		C100.7,307.3,100.7,307.3,100.7,307.3z M100.7,307.3C100.7,307.3,100.7,307.3,100.7,307.3C100.7,307.3,100.7,307.3,100.7,307.3z"/>
	<path class="st6" d="M99.3,310c-0.2,0-0.3,0-0.4-0.1c-0.1,0-0.1,0-0.2,0c-0.4,0-0.7-0.3-0.7-0.7c0-0.4,0.3-0.7,0.7-0.7
		c0.7,0,1.1,0.2,1.3,0.6c0.1,0.4-0.1,0.8-0.5,0.9C99.5,310,99.4,310,99.3,310z M98.6,309.5C98.6,309.5,98.6,309.5,98.6,309.5
		C98.6,309.5,98.6,309.5,98.6,309.5z M98.6,309.5C98.6,309.5,98.6,309.5,98.6,309.5C98.6,309.5,98.6,309.5,98.6,309.5z"/>
	<path class="st6" d="M100.3,314.1c-0.2,0-0.3-0.1-0.4-0.2c-0.4-0.1-0.6-0.4-0.6-0.8c0-0.4,0.4-0.7,0.8-0.6c0.5,0.1,0.8,0.3,0.9,0.6
		c0.1,0.4-0.1,0.8-0.5,0.9C100.5,314.1,100.4,314.1,100.3,314.1z M99.7,313.6C99.7,313.6,99.7,313.6,99.7,313.6
		C99.7,313.6,99.7,313.6,99.7,313.6z"/>
	<path class="st6" d="M89.2,313.2c-0.2,0-0.3-0.1-0.4-0.2c-0.4-0.1-0.6-0.4-0.6-0.8c0-0.4,0.4-0.7,0.8-0.6c0.5,0.1,0.8,0.3,0.9,0.6
		c0.1,0.4-0.1,0.8-0.5,0.9C89.3,313.2,89.3,313.2,89.2,313.2z M88.5,312.7C88.5,312.7,88.5,312.7,88.5,312.7
		C88.5,312.7,88.5,312.7,88.5,312.7z"/>
	<path class="st6" d="M86,316.7c-0.2,0-0.3-0.1-0.4-0.2c-0.4-0.1-0.6-0.4-0.6-0.8c0-0.4,0.4-0.7,0.8-0.6c0.5,0.1,0.8,0.3,0.9,0.6
		c0.1,0.4-0.1,0.8-0.5,0.9C86.1,316.7,86.1,316.7,86,316.7z M85.3,316.2C85.3,316.2,85.3,316.2,85.3,316.2
		C85.3,316.2,85.3,316.2,85.3,316.2z"/>
	<path class="st6" d="M67.6,299.4c-0.3,0-0.5-0.1-0.6-0.4c0,0-0.1-0.1-0.2-0.1c-0.4-0.1-0.6-0.5-0.5-0.9c0.1-0.4,0.5-0.6,0.9-0.5
		c0.2,0.1,0.9,0.3,1.1,0.9c0.1,0.4-0.1,0.8-0.5,0.9C67.7,299.4,67.7,299.4,67.6,299.4z M66.9,298.9
		C66.9,298.9,66.9,298.9,66.9,298.9C66.9,298.9,66.9,298.9,66.9,298.9z"/>
	<path class="st6" d="M82.2,275.4c-0.4,0-0.7-0.3-0.7-0.7c0-0.4,0.3-0.7,0.6-0.7c0,0,0.1-0.1,0.1-0.1c0.2-0.3,0.7-0.4,1-0.2
		c0.3,0.2,0.4,0.7,0.2,1C83.3,274.8,82.9,275.4,82.2,275.4z M82.2,273.9C82.2,273.9,82.2,273.9,82.2,273.9
		C82.2,273.9,82.2,273.9,82.2,273.9z"/>
	<path class="st6" d="M85.1,274.4c-0.4,0-0.7-0.3-0.7-0.7c0-0.3,0.2-0.6,0.6-0.7c0.3-0.2,0.7-0.2,1,0c0.3,0.3,0.3,0.7,0,1
		C85.8,274.1,85.5,274.4,85.1,274.4z"/>
	<path class="st6" d="M85.8,277c-0.4,0-0.7-0.3-0.7-0.7c0-0.3,0.2-0.6,0.6-0.7c0.3-0.2,0.7-0.2,1,0c0.3,0.3,0.3,0.7,0,1
		C86.6,276.7,86.3,277,85.8,277z"/>
	<path class="st6" d="M97.9,288.6c-0.4,0-0.7-0.3-0.7-0.7c0-0.3,0.2-0.6,0.6-0.7c0.3-0.2,0.7-0.2,1,0c0.3,0.3,0.3,0.7,0,1
		C98.6,288.3,98.3,288.6,97.9,288.6z"/>
	<path class="st6" d="M66.7,277.8c-0.4,0-0.7-0.3-0.7-0.7s0.3-0.7,0.7-0.7c0.4,0,0.9-0.2,1.1-0.3c0.4-0.2,0.8,0,1,0.3s0.1,0.8-0.3,1
		C68.4,277.4,67.6,277.8,66.7,277.8z"/>
	<path class="st6" d="M73.2,282.6c-0.4,0-0.7-0.3-0.7-0.7s0.3-0.7,0.7-0.7c0.4,0,0.9-0.2,1.1-0.3c0.4-0.2,0.8,0,1,0.3
		c0.2,0.4,0.1,0.8-0.3,1C74.9,282.2,74.1,282.6,73.2,282.6z"/>
	<path class="st6" d="M57.9,285.1c-0.4,0-0.7-0.3-0.7-0.7s0.3-0.7,0.7-0.7c0.4,0,0.9-0.2,1.1-0.3c0.4-0.2,0.8,0,1,0.3
		c0.2,0.4,0.1,0.8-0.3,1C59.5,284.7,58.7,285.1,57.9,285.1z"/>
	<path class="st6" d="M45.4,294.2c-0.3,0-0.7-0.1-1-0.4c-0.3-0.3-0.3-0.8,0-1c0.3-0.2,0.7-0.3,0.9,0c0,0,0.1,0,0.2,0
		c0.4-0.1,0.8,0.2,0.8,0.6c0.1,0.4-0.2,0.8-0.6,0.8C45.7,294.2,45.5,294.2,45.4,294.2z M45.4,292.9
		C45.4,292.9,45.4,292.9,45.4,292.9C45.4,292.9,45.4,292.9,45.4,292.9z"/>
	<path class="st6" d="M31.1,276.5c-0.4,0-0.7-0.3-0.7-0.7c0-0.4,0.3-0.7,0.6-0.7c0,0,0.1-0.1,0.1-0.1c0.2-0.3,0.7-0.4,1-0.2
		c0.3,0.2,0.4,0.7,0.2,1C32.1,276,31.7,276.5,31.1,276.5z M31.1,275.1C31.1,275.1,31.1,275.1,31.1,275.1
		C31.1,275.1,31.1,275.1,31.1,275.1z"/>
	<path class="st6" d="M47.7,293.9c-0.4,0-0.7-0.3-0.7-0.7c0-0.4,0.3-0.7,0.6-0.7c0,0,0.1-0.1,0.1-0.1c0.2-0.3,0.7-0.4,1-0.2
		c0.3,0.2,0.4,0.7,0.2,1C48.8,293.4,48.4,293.9,47.7,293.9z M47.7,292.5C47.7,292.5,47.7,292.5,47.7,292.5
		C47.7,292.5,47.7,292.5,47.7,292.5z"/>
	<path class="st6" d="M50.9,292.8c-0.4,0-0.7-0.3-0.7-0.7c0-0.4,0.3-0.7,0.6-0.7c0,0,0.1-0.1,0.1-0.1c0.2-0.3,0.7-0.4,1-0.2
		c0.3,0.2,0.4,0.7,0.2,1C52,292.2,51.5,292.8,50.9,292.8z M50.9,291.3C50.9,291.3,50.9,291.3,50.9,291.3
		C50.9,291.3,50.9,291.3,50.9,291.3z"/>
	<path class="st6" d="M29.3,271.8h-0.4c-0.4,0-0.7-0.3-0.7-0.7s0.3-0.7,0.7-0.7h0.4c0.4,0,0.7,0.3,0.7,0.7S29.7,271.8,29.3,271.8z"
		/>
	<path class="st6" d="M26,274.1h-0.4c-0.4,0-0.7-0.3-0.7-0.7c0-0.4,0.3-0.7,0.7-0.7H26c0.4,0,0.7,0.3,0.7,0.7
		C26.7,273.8,26.4,274.1,26,274.1z"/>
	<path class="st6" d="M14.8,274.1h-0.4c-0.4,0-0.7-0.3-0.7-0.7c0-0.4,0.3-0.7,0.7-0.7h0.4c0.4,0,0.7,0.3,0.7,0.7
		C15.5,273.8,15.2,274.1,14.8,274.1z"/>
	<path class="st6" d="M25.1,277.6h-0.4c-0.4,0-0.7-0.3-0.7-0.7c0-0.4,0.3-0.7,0.7-0.7h0.4c0.4,0,0.7,0.3,0.7,0.7
		C25.8,277.2,25.5,277.6,25.1,277.6z"/>
	<path class="st6" d="M29.7,284.1h-0.4c-0.4,0-0.7-0.3-0.7-0.7c0-0.4,0.3-0.7,0.7-0.7h0.4c0.4,0,0.7,0.3,0.7,0.7
		C30.5,283.8,30.1,284.1,29.7,284.1z"/>
	<path class="st6" d="M29.7,279.7h-0.4c-0.4,0-0.7-0.3-0.7-0.7s0.3-0.7,0.7-0.7h0.4c0.4,0,0.7,0.3,0.7,0.7S30.1,279.7,29.7,279.7z"
		/>
	<path class="st6" d="M40.2,289.9c-0.1,0-0.2,0-0.3-0.1l-0.8-0.3c-0.4-0.2-0.5-0.6-0.4-0.9c0.2-0.4,0.6-0.5,0.9-0.4l0.8,0.3
		c0.4,0.2,0.5,0.6,0.4,0.9C40.7,289.7,40.4,289.9,40.2,289.9z"/>
	<path class="st6" d="M48.3,298c-0.1,0-0.2,0-0.3-0.1l-0.8-0.3c-0.4-0.2-0.5-0.6-0.4-0.9c0.2-0.4,0.6-0.5,0.9-0.4l0.8,0.3
		c0.4,0.2,0.5,0.6,0.4,0.9C48.8,297.8,48.6,298,48.3,298z"/>
	<path class="st6" d="M33.4,280.9h-0.4c-0.4,0-0.7-0.3-0.7-0.7c0-0.4,0.3-0.7,0.7-0.7h0.4c0.4,0,0.7,0.3,0.7,0.7
		C34.1,280.6,33.8,280.9,33.4,280.9z"/>
	<path class="st6" d="M17.7,275.2h-0.4c-0.4,0-0.7-0.3-0.7-0.7c0-0.4,0.3-0.7,0.7-0.7h0.4c0.4,0,0.7,0.3,0.7,0.7
		C18.4,274.9,18.1,275.2,17.7,275.2z"/>
	<path class="st6" d="M25.3,270.7c-0.2,0-0.4-0.1-0.6-0.3c-0.3-0.3-0.2-0.8,0.1-1l0.7-0.6c0.3-0.2,0.8-0.2,1,0.1
		c0.3,0.3,0.2,0.8-0.1,1l-0.7,0.6C25.6,270.7,25.4,270.7,25.3,270.7z"/>
	<path class="st6" d="M21,278.7c-0.1,0-0.1,0-0.2,0l-0.9-0.2c-0.4-0.1-0.6-0.5-0.5-0.9c0.1-0.4,0.5-0.6,0.9-0.5l0.9,0.2
		c0.4,0.1,0.6,0.5,0.5,0.9C21.6,278.5,21.3,278.7,21,278.7z"/>
	<path class="st6" d="M42.3,293.6c-0.1,0-0.1,0-0.2,0l-0.9-0.2c-0.4-0.1-0.6-0.5-0.5-0.9c0.1-0.4,0.5-0.6,0.9-0.5l0.9,0.2
		c0.4,0.1,0.6,0.5,0.5,0.9C42.9,293.4,42.6,293.6,42.3,293.6z"/>
	<path class="st6" d="M39,292.9c-0.1,0-0.1,0-0.2,0l-0.9-0.2c-0.4-0.1-0.6-0.5-0.5-0.9c0.1-0.4,0.5-0.6,0.9-0.5l0.9,0.2
		c0.4,0.1,0.6,0.5,0.5,0.9C39.6,292.7,39.3,292.9,39,292.9z"/>
	<path class="st6" d="M45.1,300c-0.1,0-0.1,0-0.2,0l-0.9-0.2c-0.4-0.1-0.6-0.5-0.5-0.9c0.1-0.4,0.5-0.6,0.9-0.5l0.9,0.2
		c0.4,0.1,0.6,0.5,0.5,0.9C45.7,299.8,45.4,300,45.1,300z"/>
	<path class="st6" d="M55.2,297.5c-0.1,0-0.1,0-0.2,0l-0.9-0.2c-0.4-0.1-0.6-0.5-0.5-0.9c0.1-0.4,0.5-0.6,0.9-0.5l0.9,0.2
		c0.4,0.1,0.6,0.5,0.5,0.9C55.8,297.3,55.5,297.5,55.2,297.5z"/>
	<path class="st6" d="M59,298.5c-0.1,0-0.1,0-0.2,0l-0.9-0.2c-0.4-0.1-0.6-0.5-0.5-0.9c0.1-0.4,0.5-0.6,0.9-0.5l0.9,0.2
		c0.4,0.1,0.6,0.5,0.5,0.9C59.6,298.3,59.3,298.5,59,298.5z"/>
	<path class="st6" d="M44.7,297.1c0,0-0.1,0-0.1,0l-2.3-0.4c-0.4-0.1-0.7-0.4-0.6-0.8c0.1-0.4,0.4-0.7,0.8-0.6l2.3,0.4
		c0.4,0.1,0.7,0.4,0.6,0.8C45.3,296.9,45,297.1,44.7,297.1z"/>
	<path class="st6" d="M24.8,268.3c-0.4,0-0.9-0.2-1.2-0.4c-0.3-0.2-0.5-0.7-0.2-1c0.2-0.3,0.6-0.5,1-0.2l0,0
		c0.2,0.1,0.4,0.2,0.5,0.2c0.3-0.1,0.7,0.1,0.8,0.4c0.2,0.4,0,0.8-0.3,1C25.1,268.3,25,268.3,24.8,268.3z"/>
	<path class="st6" d="M24,280.6c-0.3,0-0.6-0.2-0.7-0.6c-0.1-0.4,0.2-0.8,0.6-0.9c2.6-0.5,3.1,0.1,3.2,0.3c0.2,0.3,0.1,0.8-0.2,1
		c-0.3,0.2-0.6,0.2-0.9-0.1c-0.3-0.1-1.1,0-1.8,0.2C24,280.6,24,280.6,24,280.6z"/>
	<path class="st6" d="M22.3,283.4c-0.6,0-1.2-0.2-1.4-0.2c-0.4-0.1-0.6-0.5-0.5-0.9c0.1-0.4,0.5-0.6,0.9-0.5
		c0.5,0.2,1.2,0.2,1.4,0.1c0.3-0.2,0.8-0.2,1,0.1c0.2,0.3,0.2,0.8-0.1,1C23.2,283.3,22.7,283.4,22.3,283.4z"/>
	<path class="st6" d="M35.8,285.5c-0.2,0-0.3-0.1-0.5-0.2c-0.6-0.5-2.5-0.9-3.5-1c-0.4,0-0.7-0.4-0.6-0.8c0-0.4,0.4-0.7,0.8-0.6
		c0.3,0,3.2,0.3,4.3,1.3c0.3,0.3,0.3,0.7,0.1,1C36.2,285.4,36,285.5,35.8,285.5z"/>
	<path class="st6" d="M33.1,270.2c-0.3,0-0.6-0.2-0.7-0.6c-0.1-0.4,0.2-0.8,0.6-0.8c2-0.4,2.4,0,2.5,0.2c0.3,0.3,0.3,0.7,0,1
		c-0.2,0.2-0.6,0.3-0.9,0.1c-0.2,0-0.8,0-1.4,0.1C33.2,270.2,33.1,270.2,33.1,270.2z M34.5,269.9C34.5,269.9,34.5,269.9,34.5,269.9
		C34.5,269.9,34.5,269.9,34.5,269.9z"/>
	<path class="st6" d="M46.4,289.6c-0.3,0-0.5-0.1-0.6-0.4c-0.2-0.1-0.8-0.4-1.3-0.5c-0.4-0.1-0.6-0.5-0.5-0.9
		c0.1-0.4,0.5-0.6,0.9-0.5c1.9,0.5,2.1,1.1,2.2,1.3c0.1,0.4-0.1,0.8-0.4,0.9C46.6,289.5,46.5,289.6,46.4,289.6z M45.8,289.2
		L45.8,289.2L45.8,289.2z M45.8,289.1C45.8,289.1,45.8,289.1,45.8,289.1C45.8,289.1,45.8,289.1,45.8,289.1z"/>
	<path class="st6" d="M49.6,300.3c-0.1,0-0.3,0-0.4-0.1c-0.2,0-0.8,0-1.4,0.1c-0.4,0.1-0.8-0.2-0.8-0.6c-0.1-0.4,0.2-0.8,0.6-0.8
		c2-0.3,2.4,0.1,2.5,0.2c0.3,0.3,0.3,0.7,0,1C50,300.3,49.8,300.3,49.6,300.3z M49.1,300.1C49.1,300.1,49.1,300.1,49.1,300.1
		C49.1,300.1,49.1,300.1,49.1,300.1z"/>
	<path class="st6" d="M49.1,296.2c-0.4,0-0.7-0.3-0.7-0.6c-0.1-0.3,0.2-0.7,0.5-0.8c0.2-0.2,0.5-0.7,0.7-1.2c0.2-0.4,0.6-0.5,1-0.3
		c0.4,0.2,0.5,0.6,0.3,1c-0.9,1.8-1.5,1.9-1.7,1.9C49.1,296.2,49.1,296.2,49.1,296.2z M49,294.7C49,294.7,49,294.7,49,294.7
		C49,294.7,49,294.7,49,294.7z"/>
</g>
<title>linea_tiempo</title>
<g>
	<text transform="matrix(1 0 0 1 22.0044 67.92)" class="st17 st18 st19">El ciclo de la hembra dura </text>
	<text transform="matrix(1 0 0 1 22.0044 75.72)" class="st17 st18 st19">60 días. Sin embargo, sólo</text>
	<text transform="matrix(1 0 0 1 98.4441 75.72)" class="st17 st18 st19"> </text>
	<text transform="matrix(1 0 0 1 22.0044 83.52)" class="st17 st18 st19">2 o 3 días esta receptiva</text>
	<text transform="matrix(1 0 0 1 92.4644 83.52)" class="st17 st18 st19"> </text>
	<text transform="matrix(1 0 0 1 22.0044 91.32)" class="st17 st18 st19">al macho.</text>
	<text transform="matrix(1 0 0 1 17.923 348.17)" class="st17 st18 st19">La Gestación es de </text>
	<text transform="matrix(1 0 0 1 17.923 355.97)" class="st17 st18 st19">13 meses.</text>
	<text transform="matrix(1 0 0 1 47.55 355.97)" class="st17 st18 st19"> </text>
	<text transform="matrix(1 0 0 1 17.923 368.97)" class="st17 st18 st19">Tienen las crias en tierra.</text>
	<text transform="matrix(1 0 0 1 90.794 368.97)" class="st17 st18 st19"> </text>
	<text transform="matrix(1 0 0 1 17.923 381.97)" class="st17 st18 st19">Nacen con rayas para</text>
	<text transform="matrix(1 0 0 1 81.0509 381.97)" class="st17 st18 st19"> </text>
	<text transform="matrix(1 0 0 1 17.923 389.77)" class="st17 st18 st19">mimetizarse.</text>
	<text transform="matrix(1 0 0 1 141.0092 96.7509)" class="st17 st18 st19">Puede tener </text>
	<text transform="matrix(1 0 0 1 141.0092 104.5508)" class="st17 st18 st19">más de 10 crias</text>
	<text transform="matrix(1 0 0 1 186.626 104.5508)" class="st17 st18 st19"> </text>
	<text transform="matrix(1 0 0 1 141.0092 112.3508)" class="st17 st18 st19">en su vida</text>
	<text transform="matrix(1 0 0 1 170.636 112.3508)" class="st17 st18 st19"> </text>
	<text transform="matrix(1 0 0 1 141.0092 120.1508)" class="st17 st18 st19">y máximo 1 a 2</text>
	<text transform="matrix(1 0 0 1 185.0789 120.1508)" class="st17 st18 st19"> </text>
	<text transform="matrix(1 0 0 1 141.0092 127.9509)" class="st17 st18 st19">por embarazo.</text>
	<text transform="matrix(1 0 0 1 122.4785 470.0203)" class="st17 st18 st19">Comienza el destete y </text>
	<text transform="matrix(1 0 0 1 122.4785 477.8203)" class="st17 st18 st19">a perder las rayas. Estas</text>
	<text transform="matrix(1 0 0 1 193.1335 477.8203)" class="st17 st18 st19"> </text>
	<text transform="matrix(1 0 0 1 122.4785 485.6203)" class="st17 st18 st19">desaparecen al comienzo</text>
	<text transform="matrix(1 0 0 1 196.3118 485.6203)" class="st17 st18 st19"> </text>
	<text transform="matrix(1 0 0 1 122.4785 493.4203)" class="st17 st18 st19">desde la parte superior,</text>
	<text transform="matrix(1 0 0 1 190.6632 493.4203)" class="st17 st18 st19"> </text>
	<text transform="matrix(1 0 0 1 122.4785 501.2203)" class="st17 st18 st19">hasta finalmente las</text>
	<text transform="matrix(1 0 0 1 179.9903 501.2203)" class="st17 st18 st19"> </text>
	<text transform="matrix(1 0 0 1 122.4785 509.0203)" class="st17 st18 st19">patas y cabeza.</text>
	<path class="st20" d="M19.8,46h28.5c3.6,0.1,6.5,3.2,6.3,6.9c-0.1,3.4-2.9,6.2-6.3,6.3H19.8c-3.6-0.1-6.5-3.2-6.3-6.9
		C13.6,48.9,16.4,46.1,19.8,46z"/>
	<polygon class="st20" points="54.7,54.4 58.4,52.6 54.7,50.9 50.9,52.6 	"/>
	<text transform="matrix(1 0 0 1 20.7441 55.37)" class="st6 st18 st21">2-3 días</text>
	<path class="st22" d="M54.3,37.6h40.4c3.6,0,6.6,3,6.6,6.6c0,3.6-3,6.6-6.6,6.6l0,0H54.3c-3.6,0-6.6-3-6.6-6.6
		C47.7,40.6,50.7,37.6,54.3,37.6z"/>
	<polygon class="st22" points="101.2,46 105,44.2 101.2,42.5 97.5,44.2 	"/>
	<text transform="matrix(1 0 0 1 61.454 46.99)" class="st6 st18 st21">60 días</text>
	<path class="st22" d="M31,325.3h63.1c3.6,0.1,6.5,3.2,6.3,6.9c-0.1,3.4-2.9,6.2-6.3,6.3H31c-3.6-0.1-6.5-3.2-6.3-6.9
		C24.8,328.2,27.5,325.4,31,325.3z"/>
	<polygon class="st22" points="100.6,333.7 104.3,331.9 100.6,330.2 96.8,331.9 	"/>
	<text transform="matrix(1 0 0 1 45.1227 334.67)" class="st6 st18 st21">13 meses</text>
	<path class="st22" d="M51.3,458.6h43.4c3.6,0.1,6.5,3.2,6.3,6.9c-0.1,3.4-2.9,6.2-6.3,6.3H51.3c-3.6-0.1-6.5-3.2-6.3-6.9
		C45.1,461.5,47.9,458.8,51.3,458.6z"/>
	<polygon class="st22" points="101.2,467 105,465.2 101.2,463.5 97.5,465.2 	"/>
	<text transform="matrix(1 0 0 1 60.224 467.98)" class="st6 st18 st21">6 meses</text>
	<line class="st23" x1="112.9" y1="6" x2="112.9" y2="531.8"/>
	<line class="st24" x1="109.5" y1="22.5" x2="116.2" y2="22.5"/>
	<line class="st24" x1="109.5" y1="44.6" x2="116.2" y2="44.6"/>
	<line class="st24" x1="109.5" y1="66.6" x2="116.2" y2="66.6"/>
	<line class="st24" x1="109.5" y1="88.9" x2="116.2" y2="88.9"/>
	<line class="st24" x1="109.5" y1="110.8" x2="116.2" y2="110.8"/>
	<line class="st24" x1="109.5" y1="133.3" x2="116.2" y2="133.3"/>
	<line class="st24" x1="109.5" y1="155.2" x2="116.2" y2="155.2"/>
	<line class="st24" x1="109.5" y1="177.5" x2="116.2" y2="177.5"/>
	<line class="st24" x1="109.5" y1="199.5" x2="116.2" y2="199.5"/>
	<line class="st24" x1="109.5" y1="221.8" x2="116.2" y2="221.8"/>
	<line class="st24" x1="109.5" y1="243.7" x2="116.2" y2="243.7"/>
	<line class="st24" x1="109.5" y1="266" x2="116.2" y2="266"/>
	<line class="st24" x1="109.5" y1="288.3" x2="116.4" y2="288.3"/>
	<line class="st24" x1="109.5" y1="310.2" x2="116.4" y2="310.2"/>
	<line class="st24" x1="109.5" y1="332.3" x2="116.4" y2="332.3"/>
	<line class="st24" x1="109.5" y1="354.3" x2="116.4" y2="354.3"/>
	<line class="st24" x1="109.5" y1="376.6" x2="116.4" y2="376.6"/>
	<line class="st24" x1="109.5" y1="398.5" x2="116.4" y2="398.5"/>
	<line class="st24" x1="109.5" y1="421" x2="116.4" y2="421"/>
	<line class="st24" x1="109.5" y1="442.9" x2="116.4" y2="442.9"/>
	<line class="st24" x1="109.5" y1="465.2" x2="116.4" y2="465.2"/>
	<line class="st24" x1="109.5" y1="487.2" x2="116.4" y2="487.2"/>
	<line class="st24" x1="109.5" y1="509.5" x2="116.4" y2="509.5"/>
	<line class="st24" x1="109.5" y1="531.4" x2="116.4" y2="531.4"/>
	<text transform="matrix(1 0 0 1 111.864 263.44)" class="st6 st18 st25">1</text>
	<text transform="matrix(1 0 0 1 107.804 272.44)" class="st6 st18 st25">año</text>
	<text transform="matrix(1 0 0 1 111.084 7.85)" class="st6 st18 st25">0</text>
	<text transform="matrix(1 0 0 1 111.204 520.8)" class="st6 st18 st21">2</text>
	<text transform="matrix(1 0 0 1 106.904 529.8)" class="st6 st18 st25">años</text>
	<line class="st26" x1="18.1" y1="289" x2="18.1" y2="328.5"/>
	<polygon class="st22" points="14.9,327.7 18.1,330.9 21.3,327.7 21.3,330.4 18.1,333.6 14.9,330.4 	"/>
	<polyline class="st26" points="120.3,332.3 131.9,332.3 131.9,460.2 	"/>
	<polygon class="st22" points="128.7,456.7 131.9,459.9 135.1,456.7 135.1,459.4 131.9,462.6 128.7,459.4 	"/>
	<circle class="st22" cx="131.6" cy="242.2" r="5.8"/>
	<circle class="st22" cx="131.6" cy="226.1" r="5.8"/>
	<circle class="st22" cx="131.6" cy="209.8" r="5.8"/>
	<circle class="st22" cx="131.6" cy="193.7" r="5.8"/>
	<circle class="st22" cx="131.6" cy="177.2" r="5.8"/>
	<circle class="st22" cx="131.6" cy="161.1" r="5.8"/>
	<circle class="st22" cx="131.6" cy="144.8" r="5.8"/>
	<circle class="st22" cx="131.6" cy="128.7" r="5.8"/>
	<circle class="st22" cx="131.6" cy="112.6" r="5.8"/>
	<circle class="st22" cx="131.6" cy="96.4" r="5.8"/>
	<line class="st26" x1="18.1" y1="63" x2="18.1" y2="263"/>
</g>
</svg>
