<?xml version="1.0" encoding="utf-8"?>
<!-- Generator: Adobe Illustrator 24.0.1, SVG Export Plug-In . SVG Version: 6.00 Build 0)  -->
<svg version="1.1" id="Layer_1" xmlns="http://www.w3.org/2000/svg" xmlns:xlink="http://www.w3.org/1999/xlink" x="0px" y="0px"
	 viewBox="0 0 53.5 53.5" style="enable-background:new 0 0 53.5 53.5;" xml:space="preserve">
<style type="text/css">
	.st0{clip-path:url(#SVGID_2_);}
	.st1{fill:#4B4038;}
	.st2{fill:#4B4038;stroke:#766A64;stroke-linecap:round;stroke-miterlimit:10;}
	.st3{fill:none;stroke:#261E16;stroke-miterlimit:10;}
	.st4{fill:#8E8E23;}
	.st5{fill:none;stroke:#8E8E23;stroke-width:3;stroke-linecap:round;stroke-linejoin:round;}
</style>
<title>NO_cabeza</title>
<g>
	<g>
		<g>
			<g>
				<defs>
					<circle id="SVGID_1_" cx="27" cy="27.3" r="23.3"/>
				</defs>
				<clipPath id="SVGID_2_">
					<use xlink:href="#SVGID_1_"  style="overflow:visible;"/>
				</clipPath>
				<g class="st0">
					<path class="st1" d="M21,33.4c-1.2,0.5-1.9,0-3.8,0s-3.3,2.7-5.4,2.1s-2-1.7-2-1.7s0.2,0.1,1.8-2.9s2.1-5.5,5.5-7.1
						s4.5-1.1,7.2-3.8c0.5-0.3,0.7-0.9,0.7-1.5c-0.2-0.8-2.6-2.9,0.3-4.8c1.5-0.8,1.3,1.3,1.8,1.9s0.8,0.3,1.1,0.1s3.8-3.6,10.8-2
						s10.4,3.8,12,4.7c0.3,1.2,1.1,3.1,1.4,6.4c0,0-0.1,8.7-2.8,13.4c-3.4,5.7-6.4,7.8-6.4,7.8c-2.7-1.4-4.1-2.1-6.5-4
						c-3.7-3.2-5.1-5-6.6-5.2s-2.8,0.3-6-0.7c-2.1-0.8-4.3-1.2-6.5-1.1c-1.8,0.1-2.3-0.1-2.8-0.4"/>
					<path class="st2" d="M31.4,19.9c0.7-1,1.7-1.8,2.8-2.5"/>
					<path class="st2" d="M35.5,22.9c0,0,2-0.4,2.8-4.1s-1-3.7-1.8-3.7s-1.8,0.2-2.5,3s-0.1,3-0.8,4.2"/>
					<path class="st2" d="M38.5,16.9c0,0,3.6,0,9.9,2.3"/>
					<path class="st2" d="M28.8,18.2c1.8-1,3.7-1.5,5.7-1.6"/>
					<path class="st2" d="M24.2,27.6c0,0-0.3-1.3,0.3-1.5c0.7-0.1,1.5,0,2.2,0.2"/>
					<path class="st2" d="M25.2,27.3c-0.1-0.2-0.1-0.5,0.1-0.6c0.1,0,0.1-0.1,0.2-0.1c0.5,0,1.1,0.1,1.5,0.4
						c-0.3,0.3-0.8,0.6-1.2,0.6C25.3,27.6,25.2,27.3,25.2,27.3z"/>
				</g>
			</g>
		</g>
		<circle class="st3" cx="27" cy="27.3" r="23.3"/>
		<path class="st4" d="M26.8,0C12,0,0,11.9,0,26.7s11.9,26.8,26.7,26.8s26.8-11.9,26.8-26.7l0,0C53.5,12,41.6,0,26.8,0z M26.8,47.1
			c-11.2,0-20.3-9-20.4-20.3c0-11.2,9-20.3,20.3-20.4c11.2,0,20.3,9,20.4,20.3l0,0C47.1,38,38,47.1,26.8,47.1z"/>
		<line class="st5" x1="51.2" y1="27.1" x2="39.2" y2="27.1"/>
		<line class="st5" x1="14.3" y1="27.1" x2="2.3" y2="27.1"/>
		<line class="st5" x1="26.8" y1="1.6" x2="26.8" y2="13.6"/>
		<line class="st5" x1="26.8" y1="39.5" x2="26.8" y2="51.5"/>
	</g>
</g>
</svg>
