<?xml version="1.0" encoding="UTF-8"?>
<svg viewBox="0 0 68.09 39.13" xmlns="http://www.w3.org/2000/svg">
<defs>
<style>
	.cls-1{fill:#fff;}
	.cls-2{fill:#382e26;}
	.cls-3,
	.cls-4{fill:#e0dcdb;stroke:#e0dcdb;stroke-miterlimit:10;}
	.cls-3{stroke-linecap:round;stroke-width:0.5px;}
	.cls-4{font-size:5px;stroke-width:0.05px;font-family:"Roboto", sans-serif;}
</style>
</defs>
<title>tapir_silueta02</title>
<g data-name="Layer 2">
<rect class="cls-1" width="68.09" height="39.13"/>
<path class="cls-2" d="M2.68,13.85c-.1.23-.33.83-.33.83h.2l-.2.59s.24-.43.2-.31a7.07,7.07,0,0,0-.15.7l.09-.14-.06.56h.12a2.28,2.28,0,0,0,0,.87l.15-.12v.49l.16-.18-.12.45.22,0c-.31.41-.16.67-.16.67s.28-.23.28-.23L3,18.52l.13-.07L3,18.87l.33-.06a4.07,4.07,0,0,0-.1.71l.19-.09-.07.32.24-.09L3.48,20l.38-.19-.18.33L3.92,20l-.24.28.27,0,0,.3.2.05-.06.21.3.15-.13.18a6.17,6.17,0,0,1,.87,2.24,6.32,6.32,0,0,1-1.37,3.37,1.91,1.91,0,0,0-.56,1.65A6.24,6.24,0,0,1,3.41,30c0,.87.07.4.09.74s0,1.6,0,1.6l.11,0-.17.36.12-.06L3.48,33l.19.12-.08.2a9,9,0,0,1-.27,1.69c-.09.5,1,.9,1,.9a9.54,9.54,0,0,0,1.27.34c.4.08.28-.74.28-.74a3.27,3.27,0,0,0,.32.27,2.59,2.59,0,0,0,.72.29c.67.54,1.34.39,1.41.17S7.76,35.46,7.16,35s-1-.63-.92-1.09a17.48,17.48,0,0,0,.1-2.23c0-.35.17-.43.14-.53s-.08-.17.17-.49a6.8,6.8,0,0,0,.52-.91s0,.14.31,1,0,.94,0,.94l.12-.07,0,.19.15-.15L7.64,32,7.75,32l-.09.3.15-.05-.08.26.11,0,0,.48H8L8,33.37s0-.16.13,0a1.93,1.93,0,0,1,.14.91,4.91,4.91,0,0,0,0,.77c.17.46,1.08.58,1.08.58a2,2,0,0,0,.5.41c.06.12,1.31.56,1.51.37S11,35.11,11,35.11a1.52,1.52,0,0,0,2.25-.06s-.17-.53-1.42-.95-1.09-.7-1.24-2.33a5.28,5.28,0,0,1,.33-2.68c.14-.49.53-1.3.74-2.1a19.45,19.45,0,0,1,1.73-3.43c.24-.32.49-.17.49-.17l-.07.14.45,0-.12.07h.3l-.24.17.41,0-.08.06h.35l-.07.11.57,0-.16.06h.4l-.13.12.44,0-.11.07.48,0-.15.11.47,0-.1.13.43-.06,0,.13.47,0-.14.1.58,0-.09.12.4-.06-.06.11h.46l-.11.09h.53l-.1.16.6-.14-.05.15.5-.07-.07.13.57-.07v.1l.29,0v.12l.46-.09-.13.14.35-.06-.05.12.24-.06.14.15.42-.11,0,.06.35-.13-.05.13a9.06,9.06,0,0,0,1-.19l-.23.22a3.28,3.28,0,0,1,.71-.09,1.49,1.49,0,0,0,.67-.09l0,.18.31-.12,0,.18.42-.22v.21l.51-.18v.13a2.64,2.64,0,0,1,.68-.09,16.4,16.4,0,0,1,1.69.08l0,.15.28-.09.08.15.33-.2.05.17a1.23,1.23,0,0,1,.6-.14c.26.05.12.68.12,1.05a1,1,0,0,0,.4.66h-.11l.14.47-.11.06.11.27a2.48,2.48,0,0,0,.07.9c.14.47.12.92.21,1s0,.29,0,.29l.13.16-.28,0a.75.75,0,0,1,.24.34l-.15.25h.18l-.18.26.26,0-.08.16a.18.18,0,0,1,0,.26.42.42,0,0,1-.18.45.26.26,0,0,1,.34.17c-.17.26.13.62.06.83a3.55,3.55,0,0,0-.12.68l.16-.06-.26.53.28-.18s0-.18-.06.39a7,7,0,0,0-.18,1.94,8.86,8.86,0,0,1,.06,1.19c.06.62.3.82.46.65a1.87,1.87,0,0,0,.29-.68,1.17,1.17,0,0,0,.5.59.65.65,0,0,0,.45.4c.37.09,1.71.24,1.38-.11s-.2-.62-.2-.62a3.26,3.26,0,0,0,1,.57c.57.23,1.43.37.92-.51a8,8,0,0,0-1.41-1.6,6.43,6.43,0,0,1-.25-3.71c.31-1.09.89-3.86.89-3.86a7,7,0,0,0,.39.88l-.1-.06.18.23h-.21l.31.26-.12.06a1.29,1.29,0,0,1,.27.33c.16.24-.06.29.16.54a1.7,1.7,0,0,1,.28.67l-.1,0,.22.18c0,.44.08.8.08.8s.09-.19.18.15a1,1,0,0,1-.07.64l.21-.06v.42l.15,0-.15.33.22-.06c.06.15.23.88.32,1.2s.18.81.18.81L37,35.7l.07.41,0-.09.09.36.09-.07.06.36s-.07-.1.12.08a1.66,1.66,0,0,1,.32.65c.7.87.88.21.88.21.27.48.78.42,1.39.51s.15-.75.15-.75c.61.69,1.42.33,2,.36s-.61-1.12-1.46-1.42-1.3-1.57-1.3-1.57A10.31,10.31,0,0,1,38.92,29c.12-1.12,0-3.57,0-3.57A7.33,7.33,0,0,1,40,24.18c.6-.55.6-.88,1-1.33s.12-.58.81-.7.85-.87,1.24-1.27.61-.18.61-.18l-.12-.21.51-.18-.18-.24.58,0-.1-.37c.43.09.82-.36.82-.36l-.12-.21.88-.31,0-.12.54-.24a3.78,3.78,0,0,0,.91-.42,11.33,11.33,0,0,0,2.66.42A15.13,15.13,0,0,0,56.86,16s1.78-1.36,2.72-.92,2.74.12,1.87-.64-1.15-.59-1.33-.9a1.18,1.18,0,0,0-.18-1,.41.41,0,0,0-.3.2s-.11-.38-.2-.44A13.5,13.5,0,0,1,60.83,12a1.16,1.16,0,0,0,.41-.1l0,.13.09-.18a8.23,8.23,0,0,1,1.27-.65c.18,0,.69-.69.5-1s-.14-.8-1.67-.75a11.38,11.38,0,0,1-2.87-.24A6.74,6.74,0,0,0,57.25,9c-.74,0-3.3-.27-3.72-.38a44,44,0,0,0-4.66-.48s-2.65,0-2.92.07a1.32,1.32,0,0,0-1.51-.63H44.2l0,.06-.2,0,.06.09-.26.08.08,0L43.64,8l.12,0-.2.12.08.06-.29.3-.12-.1-.08-.07v.17l-.31-.12,0,.09-.54-.2,0,.11-.53-.12.08.1-.79-.15.14.14-.52-.08.16.11-.64-.06.09.14a2.4,2.4,0,0,1-.88,0l.16.11-.64,0,.09.09-.54-.07.12.15a3.6,3.6,0,0,0-1.12-.14l.16.12s-1.1,0-1.39,0a45.36,45.36,0,0,1-6.95-.49,12.43,12.43,0,0,1-3.66-1.1l.06.18L25.4,7l.17.2L25,6.85l.21.27-.54-.35.13.23-.62-.29.19.23a6,6,0,0,0-1.47-.52A40.08,40.08,0,0,0,18,5.91a27.92,27.92,0,0,0-7.11.92,8.43,8.43,0,0,0-2.48.92S6.74,9,6.27,9.27a7.3,7.3,0,0,0-2.92,3l.07.07-.36.27.15,0Z"/>
<line class="cls-3" x1="4.38" x2="39.24" y1="15.56" y2="15.56"/>
<rect class="cls-2" x="12.03" y="10.04" width="18.91" height="10.49"/>
<text class="cls-4" transform="translate(13.65 17.52)">1.8 mt</text>
</g>
</svg>
