<?xml version="1.0" encoding="UTF-8"?>
<svg viewBox="0 0 68.09 39.13" xmlns="http://www.w3.org/2000/svg">
<defs>
<style>.cls-1{fill:#fff;}
	.cls-2{fill:#8e837e;}
	.cls-3,
	.cls-4{fill:#e0dcdb;stroke:#e0dcdb;stroke-miterlimit:10;}
	.cls-3{stroke-linecap:round;stroke-width:0.5px;}
	.cls-4{font-size:5px;stroke-width:0.05px;font-family:"Roboto", sans-serif;}
</style>
</defs>
<title>tapir_silueta01</title>
<g data-name="Layer 2">
<rect class="cls-1" width="68.09" height="39.13"/>
<path class="cls-2" d="M48.12,23.65c-.24-.27-.34-.9-.47-1.11a10.25,10.25,0,0,0-2.32-3.08s-1.44-.84-1.53-1.37a5.89,5.89,0,0,0-1.54-2.21c-.77-.65-2.11-3-2.45-3.25l-.29-.24,0-.08c1-1.61.6-2.57.37-2.8s-.22.17-.47.62A5,5,0,0,1,38,11.23l-.05.16c-.34-.17-.68-.33-1-.48-.15-.77-.73-1-1.25-1.31-.37-.22-.73,0-1,.52A36.55,36.55,0,0,0,28,8.85a18.58,18.58,0,0,1-4.46,0,54.47,54.47,0,0,0-9.35.25c-1.38.23-5.52,1.23-8,3.54s-3.63,4-3.52,6.28a3.76,3.76,0,0,0,.25,1.49s.05.45.05.85c0,0-.1.91.07,1s.35.12.78-.63c0,0,1.38,1.26,1.78,1.74a4,4,0,0,1,.83,1.26,3.81,3.81,0,0,1-.68,1.53,14.69,14.69,0,0,0-2.08,3.07c-.63,1.4-.8,2.53-1.08,3.09a10.08,10.08,0,0,0-.81,1.73l-.35.33s.38-.12.31.53.19,1.55.57,1.7.78.39.55-1.08c0,0,.2,1,.93,1.06S5.47,37,5,36.3c0,0,.35.12.2-.12s-.25-.41-.25-.41l.32-.08s.13-.12-.3-.37a1.18,1.18,0,0,1-.58-.76A6.85,6.85,0,0,1,5.2,32.4c.55-.9,1.08-1.91,1.3-1.94s.53-.09.48-.29A6.36,6.36,0,0,1,8.61,28.3a21.34,21.34,0,0,1,.46,2.89,4,4,0,0,0,.56,1.29,11.61,11.61,0,0,1,.69,1.35c.26.41.81,1.29.91,1.49A8.29,8.29,0,0,1,11.78,37c0,.27.06.47.44.65a3,3,0,0,0,.45.65c.24.21,1.31.44,1.17.18a1.61,1.61,0,0,1-.17-.6,5.24,5.24,0,0,1,1.13.1.81.81,0,0,0,.51,0A.65.65,0,0,0,16,38c.31-.21.23-.15-.2-.45a3.16,3.16,0,0,0,.68-.08s-.85-.78-.85-.78a2.9,2.9,0,0,0-1.36-.78,2.26,2.26,0,0,1-.6-.95c-.33-.76-.64-1-.88-1.64a5.2,5.2,0,0,1-.31-1.61,2.73,2.73,0,0,0-.15-1.05,10.2,10.2,0,0,1-.1-2.07,13.43,13.43,0,0,1,.43-3.26s.86.78,4.53,1.33c0,0,4.07-.45,5.3-1.13,0,0,.8.45.93.76a34.54,34.54,0,0,0,3.4,3.13,17.72,17.72,0,0,1-.16,1.91c-.12.51.11.53.11.53s-1.13,2.45-.31,2a.84.84,0,0,0-.15.7s.18,1.14.51,1.23.4,0,.4,0,0,.93.3,1.1a.33.33,0,0,0,.45-.08s1.16.24,1.26.11-.15-.33-.15-.33a2.61,2.61,0,0,0,.77,0c.48,0,1.81.07,1.61-.28s-1-.75-1.08-.9-.68-.33-.73-.64-.09-.88-.09-.88a1.19,1.19,0,0,0,.3-1.13s0-.85.23-2.05a2.69,2.69,0,0,0-.23-1.84s.35-1.06.67-1.76,1.18-3.49,1.36-3.83a2.77,2.77,0,0,1,.6-.78c.24-.15.84-.77,1.46-.74a3.34,3.34,0,0,1,1.44.37,7.23,7.23,0,0,0,1.55.81c.74.25,3.76,1.55,4.29,1.65a3.94,3.94,0,0,0,1.18.33c.38,0,.88-.23,1.14,0a1.27,1.27,0,0,0,1.7-.13.69.69,0,0,1,.86-.18,1.25,1.25,0,0,0,.73.21s.18.55.85-.08S48.35,23.91,48.12,23.65Z"/>
<line class="cls-3" x1="4.38" x2="10.22" y1="18.15" y2="18.15"/>
<line class="cls-3" x1="28.39" x2="34.24" y1="18.15" y2="18.15"/>
<text class="cls-4" transform="translate(11.41 20.1)">1.6 mt</text>
</g>
</svg>
