<?xml version="1.0" encoding="utf-8"?>
<!-- Generator: Adobe Illustrator 24.0.1, SVG Export Plug-In . SVG Version: 6.00 Build 0)  -->
<svg version="1.1" id="Layer_1" xmlns="http://www.w3.org/2000/svg" xmlns:xlink="http://www.w3.org/1999/xlink" x="0px" y="0px"
	 viewBox="0 0 498.9 332.2" style="enable-background:new 0 0 498.9 332.2;" xml:space="preserve">
<style type="text/css">
	.st0{fill:#c1be53;}
</style>
<title>tapir_04</title>
<g>
	<g>
		<path class="st0" d="M410.5,29.8l-0.9-4l-0.7,2.2l-1.6-3.5l-0.9,3.8l-2.9-3.5l-1.1,2l-3.8-5.4l-0.2,2.9l-4.2-4.2l-0.2,2.2
			l-5.4-5.5l0.2,2.2l-3.4-3.6L386,18l-2.9-3.6l0.5,2.5l-2.7-4l-0.4,2.7l-2.9-3.4l0.2,2.5l-4-5.8l0.2,2.9l-3.6-2.7l0.2,1.8l-3.1-4
			l0.2,2l-2.5-2.7l-0.5,2.9c0,0-2.9-2.2-2.9-5.3l0.2,4l-2.4-2.9l1.1,3.4c-1.6-1.8-3-3.7-4.4-5.6l0.2,2.9l-2.2-3.3c0,0-0.5,3.1,0,4.2
			l-2.7-4.7l0.2,2.5L350,2.5l-0.7,2.2l-2.5-3.6l0.4,3.1L344.1,0l0.9,3.8l-2.9-2.4l0.4,2.4c0,0-3.6-2-4.7-2.7l0.7,1.5
			c0,0-3.8-1.6-5.3-1.6l3.8,3.3l-6.1-3.6l1.1,2.9l-5.3-3.3l1.8,2.5l-3.8-2.2l1.4,1.6l-3.8-1.5l1.6,1.3l-5.1-1.3l1.6,2.5l-4.4-2.2
			l1.1,1.3l-4.7-0.5l1.6,1.8l-3.5-0.7l1.5,1.8c0,0-5.1-2.2-7.3-1.5l1.8,1.5l-4.4-0.2l1.3,0.7c0,0-10.9,1.8-12.9,1.8s-9.4,2.6-48.8,0
			s-87.1,0.2-102.2,2.7S79.4,23.3,52.1,48.5s-39.8,44-38.5,68.7c-0.3,5.6,0.7,11.2,2.7,16.4c0,0,0.5,4.9,0.5,9.3
			c0,0-1.1,10,0.7,11.1s3.8,1.3,8.5-6.9c0,0,15.1,13.8,19.4,19.1s9.3,11.6,9.1,13.8c-1.2,6.1-3.7,11.8-7.4,16.7
			c-6.2,8.2-15.8,18.3-22.7,33.6s-8.7,27.6-11.8,33.8s-8.9,16.2-8.9,18.9L0,286.4c0,0,4.2-1.3,3.4,5.8s2,16.9,6.2,18.5
			s8.5,4.4,6-11.8c0,0,2.2,10.5,10.2,11.6s18.2,4.5,12.5-3.3c0,0,3.8,1.3,2.2-1.3c-1.6-2.5-2.7-4.5-2.7-4.5l3.4-0.9
			c0,0,1.4-1.3-3.3-4c-3.2-1.8-5.5-4.8-6.4-8.4c-0.2-1.3,3.4-13.8,9.4-23.6s11.8-20.9,14.2-21.2c2.4-0.4,5.8-0.9,5.3-3.1
			s16.5-21.6,17.8-20.5c0,0,5.3,24,5.1,31.6c0,0,1.8,8.4,6.2,14.2c4.4,5.8,4.5,10.2,7.4,14.7c2.9,4.5,8.9,14.2,10,16.4
			s6.2,15.3,6,18.2s0.7,5.1,4.9,7.1c0,0,2.4,4.7,4.9,7.1s14.3,4.9,12.7,2c-1-2-1.7-4.3-1.8-6.5c0,0,10,0,12.3,1.1
			c2.3,1.1,5.6,0,5.6,0s3.8,2.4,7.3,0s2.5-1.6-2.2-4.9c0,0,7.4-0.4,7.4-0.9s-9.3-8.5-9.3-8.5c-4.1-4.2-9.2-7.1-14.9-8.5
			c0,0-2.9-2-6.5-10.4c-3.6-8.4-7.1-11.4-9.6-18c-2.1-5.7-3.2-11.6-3.4-17.6c0-3.3-0.2-8.9-1.6-11.4s-1.1-17.8-1.1-22.7
			c0,0,1.1-30.5,4.7-35.6c0,0,9.4,8.5,49.6,14.5c0,0,44.5-4.9,57.9-12.4c0,0,8.7,4.9,10.2,8.4s34.5,32.5,37.2,34.1
			c0,0-0.5,15.3-1.8,20.9c-1.3,5.6,1.3,5.8,1.3,5.8s-12.3,26.9-3.4,21.8c0,0-2.9,3.8-1.6,7.6c0,0,2,12.5,5.6,13.4s4.4,0.2,4.4,0.2
			s0.2,10.2,3.3,12c1.6,1.1,3.8,0.7,4.9-0.9c0,0,12.7,2.7,13.8,1.3c1.1-1.5-1.7-3.6-1.7-3.6c2.8,0.5,5.6,0.6,8.3,0.4
			c5.3-0.4,19.8,0.7,17.6-3.1c-2.2-3.8-11.3-8.2-11.8-9.8s-7.4-3.6-8-7.1c-0.6-3.4-0.9-9.6-0.9-9.6s5.3-5.1,3.3-12.4
			c0.4-7.5,1.3-14.9,2.5-22.3c2.2-13.1-2.5-20.2-2.5-20.2s3.8-11.6,7.3-19.3c3.4-7.6,12.9-38.1,14.9-42c0,0,3.8-6.9,6.5-8.5
			s9.3-8.4,16-8l3.3,0.2l-2.9,2.7l5.1-2.5l3.4,0.9l-2.2,2.9l4.7-2.6l-1.6,2.6l3.4-0.2l-1.1,1.8l3.6-1.8c0,0,8.7,6.2,16.9,8.9
			s28.1,8.9,34,10c0,0,8.7,3.8,12.9,3.6c4.2-0.2,9.6-2.5,12.5-0.2s10.5,5.6,18.5-1.4c0,0,4-4.9,9.4-2c5.4,2.9,8,2.4,8,2.4
			s2,6,9.3-0.9s7.4-8.7,4.9-11.6s-3.6-9.8-5.1-12.2c-1.4-2.4-10-20.7-25.5-33.5c0,0-8.7-10.2-10.9-13.4s-7.1-8-15.4-15.1
			c-8.3-7.1-14-35.6-13.3-40.5S424.5,27.2,410.5,29.8z"/>
	</g>
</g>
</svg>
