<?xml version="1.0" encoding="UTF-8"?>
<svg viewBox="0 0 68.09 39.13" xmlns="http://www.w3.org/2000/svg">
<defs>
<style>
	.cls-1{fill:#fff;}
	.cls-2,
	.cls-6{fill:#382e26;}
	.cls-3,
	.cls-5{fill:#e0dcdb;stroke:#e0dcdb;}
	.cls-3,
	.cls-4,
	.cls-5{stroke-miterlimit:10;}
	.cls-3{stroke-width:0.25px;}
	.cls-4{fill:none;stroke:#382e26;stroke-linecap:square;}
	.cls-4,
	.cls-5{stroke-width:0.5px;}
	.cls-5{stroke-linecap:round;}
	.cls-6{font-size:5px;stroke-width:0.2px;font-family:"Roboto", sans-serif;}
</style>
</defs>
<title>tapir_silueta05</title>
<g data-name="Layer 2">
<rect class="cls-1" width="68.09" height="39.13"/>
<path class="cls-2" d="M66.77,27.93a22.65,22.65,0,0,0-1.33-5.45c-1.26-3.8-2-4.15-2.37-4.45s-2.14-2.82-2.59-3.24-1-.68-1-1.53a1.57,1.57,0,0,0-1-2,1.38,1.38,0,0,0-1.56.38s-5.77-5-12.33-6.45c0,0-6.88-1.14-7.52-1.27s-5.42-1.07-6.56-1.42S23.72.09,18.07,2.07A49.06,49.06,0,0,0,6.78,7.49C5.16,8.66,2.5,11.16,3,14.72V15c-.22.84-.57,2.21-.72,2.71-.21.74-.39,1.32.11,1.67C3,19.8,3.77,18.4,4,17.77H4a1,1,0,0,0,.31.07s1.88,1.95,2.33,2A10.93,10.93,0,0,1,7.3,23c-.1,1-.49,1-1,1.94s-1.91,1.95-1.78,3A23.12,23.12,0,0,1,4,33.54c-.32,1.24-.42,3,0,3.25a3.31,3.31,0,0,0,1.1.39s2.56.74,1.88-.3c0,0,1.59.75,1.75,0s-1.52-1.5-1.52-1.5a.91.91,0,0,1-.42-1,9,9,0,0,1,1-2.69c.65-.94,3.57-6.49,4.64-7.4a5.28,5.28,0,0,1,.91,2.53A9.11,9.11,0,0,0,15,31.4c.91,1,2.11,4.71,1.81,6s.13.68,1,1,2.4.81,2-.16c0,0,2.47.58,1.95-.45a4.26,4.26,0,0,0-1.49-1.72c-.43-.33-.78-3.25-1.24-4.42s-.58-5.58-.61-6.29.45-2,.35-2.21c0,0,2.18,2.7,12.37.81,0,0,3.17-.94,3.66-.61a3.64,3.64,0,0,0,.81,2A5.51,5.51,0,0,0,36.34,27a13,13,0,0,1,1.72,2.92c.39,1.16.62,1.72.36,1.78s-4.16.75-3.28,1.82a2,2,0,0,0-1.23,1.59s0,.39.51.42c0,0-.64.88.49,1.07a5.71,5.71,0,0,0,1.49-.39,19.76,19.76,0,0,1,2.6-1.1s.13,2.59.68,2.89a7.63,7.63,0,0,0,1.79.32c.29.1,2.49.75,1.88-.16a1.15,1.15,0,0,0,.68.29c.42,0,.06-.55.06-.55a2.93,2.93,0,0,0,1,.48c.29,0-.07-.61-.39-.94a3.82,3.82,0,0,0-1-.68c-.55-.32-1.42-.71-1.59-3.24,0,0,2-3,1.3-4.54a35.83,35.83,0,0,0,1.33-4,7,7,0,0,1,.68-.48c.33-.2,1.37-1.11,1.37-1.11a3.32,3.32,0,0,0,.94-.06,3.81,3.81,0,0,1,1-.07c1,.1,1.27-.32,1.27-.32.58.06.65-.36.65-.36.26.65,1.55.39,1.55.39.39-.36.52.07.52.07a18.32,18.32,0,0,0,3.61,3.44,6.09,6.09,0,0,1,1.78,1.46,1.16,1.16,0,0,0,1.07.55c.2,0,.91,0,1.46,1.2a4.79,4.79,0,0,0,2.24,2.11c.55.26.06-1.89.06-1.89a3.14,3.14,0,0,1,.69,1.92c0,1.13.26,2.59.71,2.82s1.46,1,2.11-.52S66.81,29,66.77,27.93Z"/>
<path class="cls-3" d="M37.09,4c-.65-.13-5.42-1.07-6.56-1.42S23.72.09,18.07,2.07A49.06,49.06,0,0,0,6.78,7.49a10.15,10.15,0,0,0-3.24,3.69A13.71,13.71,0,0,0,10,14.83c3.46.81,6.92,5.42,8.9,8.5.62.53,3.46,2.29,12.22.67,0,0,3.1-.91,3.64-.62a17.6,17.6,0,0,0,2.1-5.23c.27-2.73.32-6.88,1.67-10.44A27.13,27.13,0,0,1,40,4.45Z"/>
<line class="cls-4" x1="5.23" x2="37.33" y1="12.62" y2="12.62"/>
<line class="cls-5" x1="37.68" x2="44.99" y1="12.62" y2="12.62"/>
<line class="cls-5" x1="3.54" x2="4.94" y1="12.62" y2="12.62"/>
<polygon class="cls-3" points="35.62 17.58 12.81 16.1 10.22 13.61 10.24 11.41 9.32 7.09 36.41 7.09 36.06 11.85 36.07 13.56"/>
<text class="cls-6" transform="translate(10.75 14.57)">1.8 - 2.5mt</text>
</g>
</svg>
