<?xml version="1.0" encoding="UTF-8"?>
<svg viewBox="0 0 68.09 39.13" xmlns="http://www.w3.org/2000/svg">
<defs>
<style>
	.cls-1{fill:#fff;}
	.cls-2{fill:#382e26;}
	.cls-3,
	.cls-4{fill:#e0dcdb;stroke:#e0dcdb;stroke-miterlimit:10;}
	.cls-3{stroke-linecap:round;stroke-width:0.5px;}
	.cls-4{font-size:5px;stroke-width:0.05px;font-family:"Roboto", sans-serif;}
</style>
</defs>
<title>tapir_silueta04</title>
<g data-name="Layer 2">
<rect class="cls-1" width="68.09" height="39.13"/>
<path class="cls-2" d="M40.77,36.81c-1.2-.54-1.18-2.83-1.18-2.83-.12-.47.28-9.34.45-10.64s.68-1.14,1-1.44a1.67,1.67,0,0,1,1.25-.69,16,16,0,0,0,3.3-.93c1.87-.61,1.73-1,1.73-1a1.24,1.24,0,0,0,.95.23c.52-.1.37-.66,1.26.38a17.2,17.2,0,0,0,3.29,2.63c.61.37,1.74.89,1.9,1a6.62,6.62,0,0,0,1.13.57,1.68,1.68,0,0,1,.56.3.46.46,0,0,0,.54-.2c.2-.32.54-.21.81,0a6.17,6.17,0,0,0,.87.49c1,.29,1.06-1.45,1.06-1.45,0-2,.43-1.58-1.06-5.17,0,0-.92-3-1.54-5.64s-.44-3.28-.44-3.28S58,6.69,55.19,6.32c0,0-1.67-4.58-14.18-3.66,0,0-5.82.31-9.47-.8,0,0-8.23-1.73-10.77-1.55S9.07.93,4.18,8.42c0,0-2.91,4.21-1.74,7.49s1.74,3.28,1.92,4.58c0,0,.75.19.68-1.3a5.75,5.75,0,0,1,3.84,3.6,8,8,0,0,1-1.24,5.38s-1,.62-.31,2.42,1.92,4.08,2.54,5.57.25,2,1.3,2.23,2.85.49,2-.44c0,0,3.1.93,1.74-.49a5.42,5.42,0,0,1-1.45-.85c-.62-.54-2.39-3.09-1.73-5.2s1.4-4.08,1.4-4.08,4,4.2,4.67,5c0,0,1.65,2.27,1.52.82,0,0,1.12,1.37,1,.13a4.87,4.87,0,0,0-.74-2.89c-.82-1.53-2.56-3-2.68-3.88s2.43-3.22,2.43-4.09l.54.82.16-.28.42.08s.95.12,1.8.31a33.61,33.61,0,0,0,6.64-.05,5.86,5.86,0,0,0,2.56-.74s.07,0,.08,0c.49.92-.05,3.6-.07,4.31s-.14,1.6-.18,2.5a29.65,29.65,0,0,0,.18,3.77c.11.88-.12,1.52,0,2.14a2,2,0,0,0,.57,1c.16.22.65.32,1,.52a5.47,5.47,0,0,0,1.47.59c.74.22.8-.26.8-.26,0-.17-.29-.65-.29-.65a5.94,5.94,0,0,0,1.19.46c.42.08.9.1,1-.09s-.64-.77-1-1-.91-.27-1.45-.69-.56-2-.73-2.82a12.4,12.4,0,0,1,.68-3.7c.22-.74.56-1.79.56-1.79a3.62,3.62,0,0,1,.34,1.17c.13.79.48,1.64.85,3.22A25.4,25.4,0,0,1,37.24,35c.14,1.47.24,2.12.91,2.8a.87.87,0,0,0,1.25.14c.34.6,2.12.73,2.31.59C41.78,38,41.58,37.45,40.77,36.81Z"/>
<line class="cls-3" x1="4.38" x2="41.11" y1="12.2" y2="12.2"/>
<rect class="cls-2" x="13.03" y="6.67" width="18.91" height="10.49"/>
<text class="cls-4" transform="translate(16.51 14.16)">2 mt</text>
</g>
</svg>
