<?xml version="1.0" encoding="UTF-8"?>
<svg viewBox="0 0 68.09 39.13" xmlns="http://www.w3.org/2000/svg">
<defs>
<style>
	.cls-1{fill:#fff;}
	.cls-2{fill:#382e26;}
	.cls-3{fill:#271e16;}
	.cls-4,
	.cls-5{fill:#e0dcdb;stroke:#e0dcdb;stroke-miterlimit:10;}
	.cls-4{stroke-linecap:round;stroke-width:0.5px;}
	.cls-5{font-size:5px;stroke-width:0.05px;font-family:"Roboto", sans-serif;}
	.cls-6{letter-spacing:-0.06em;}
</style>
</defs>
<title>tapir_silueta03</title>
<g data-name="Layer 2">
<rect class="cls-1" width="68.09" height="39.13"/>
<path class="cls-2" d="M8,36.5S7.8,38,6.54,36.62a6.75,6.75,0,0,0-.33-.69,8.35,8.35,0,0,1-.38-2.59c0-.82-.37-2.74-.43-5s-.1-1.82.67-2.67,2.33-2.6,2.31-3.07A36.08,36.08,0,0,0,4.93,19.4c-.29,0-.86.23-.76-.75,0,0-1.87-1.64-2.4-5.68,0,0-.27-3,3.2-6.81A16.79,16.79,0,0,1,18,.32a26.44,26.44,0,0,1,9.18,1.43c.61.15,2.75,1.47,7.3-.28l.39.12V1.41l.22.12-.06-.16s.41.28.41.22a2,2,0,0,0-.12-.33l.3.25-.08-.39.19.25,0-.33.3.22L36.1,1l.21.22,0-.34.28.26.17-.37.44.19,0-.21.29.15,0-.25.33.25,0-.31L38,.83,38.1.45l.35.18,0-.24.27.24V.37l.32.3.06-.3.33.24.06-.24.27.26.12-.31.33.33L40.33.3l.24.23,0-.27.19.29L40.9.3l.24.29L41.27.3l.22.33.06-.28.12.24L42,.32l-.18.27.47-.16-.13.22.53-.14-.24.32L43,.61l-.2.29.46-.21L43,.94l.47-.13-.2.23L43.78,1l-.17.2.68,0L44,1.32h.47l-.18.19.53,0-.21.24.51-.08-.2.15.41,0L45.14,2l.45,0-.18.2.39,0-.15.14.37,0-.22.23s.44,0,.59-.29.75-1.26,1.67-.41c0,0,.71.33.31,2.23h.28l-.18.2h.37l-.13.14.31,0-.21.19.27.06-.16.16h.3L49,4.92l.35,0-.13.14s.13,0,.29.29A7.7,7.7,0,0,0,52.08,8a17.12,17.12,0,0,1,2.86,1.94c.32.28.87.61,1.18.83a7.4,7.4,0,0,1,2.43,5.06,3,3,0,0,1,0,1,.83.83,0,0,1-1,.61,1.7,1.7,0,0,1-.47,0,1.38,1.38,0,0,1-.84.07,3.7,3.7,0,0,1-2.12.16c-1-.29-.74.37-3.84-.08a21.07,21.07,0,0,1-4.65-1.1s-.45.14-1.26.42-1.39.27-1.64.6a5,5,0,0,1-1.89,1.71,7.91,7.91,0,0,0-2.39,2.45c-.2.3-1.76,4.45-2.25,6.06s-.77,7.1,0,8.1,1.47.81,1.47.81,1.58,1,.74,1.06a8.1,8.1,0,0,1-2.72.05s.19.73-.83.51-1-.39-1-.82A12.8,12.8,0,0,1,33.41,35c0-1.12-.26-1.27-.26-1.27a8.12,8.12,0,0,1-1.86,2.21c-.9.57-1.51.61-1.53.2s-.16-.94.51-1.37c0,0-.92.23-1.14.58A.88.88,0,0,1,28.84,34c.59-.9.65-.78.65-.78s-1.16.27-.67-.32,1.82-2,2.16-2.49a1.46,1.46,0,0,0,.12-1.59s-.59-1-.93-1.49-3.31-3.88-3.43-4.2l-.86.24-.32.27,0-.19-.47.25,0-.15-.7.25.12-.16-.46.12-.78,0-.47.18.06-.18s-1.51.08-2.69,0h-.33l0-.1-.47.1.07-.16-.51.2.18-.21-.41.13,0-.19-.35.15.05-.15-.29.06-.06-.12-.35.06.06-.18-.3.12.14-.16-.33.12.15-.2-.33.06.06-.1-.45,0,.21-.09-.35,0a2.5,2.5,0,0,0-.76-.47,3.58,3.58,0,0,1-.83-.34s-.41.26-.45.45.08.24-.21.34a3.66,3.66,0,0,1,0,1.47s.07.39.25,1.7a26.17,26.17,0,0,0,1,4.22,8.46,8.46,0,0,0,1,2.71c.8,1.19,1.69,2.66,2.84,3.25,0,0,.55.1,1.57,1.32A1.48,1.48,0,0,1,20,37.54s.71.8.34.94a3,3,0,0,1-1.87-.25,2.29,2.29,0,0,0-.68-.32s-.26,1.32-.94,1.1-.57-.59-.83-.92a6.26,6.26,0,0,1-.66-1.67A8.43,8.43,0,0,0,14,34.05a3.74,3.74,0,0,1-1.09-2.16A2.84,2.84,0,0,1,12,30.3a16.16,16.16,0,0,0-1-3.12s-2,2.06-2.08,3.59-.45,3.38.67,4.18l1.77,1.28-.5.17s.44.67.26.79a12.37,12.37,0,0,1-2.26-.45Z"/>
<path class="cls-3" d="M49.39,5l-.35,0,.18-.17h-.3l.16-.16-.27-.06L49,4.34l-.31,0,.13-.14h-.37l.18-.2h-.19l-.17,0-.23-.13.14-.11-.46-.09.32-.11-.67-.12.21-.16-.52,0L47.32,3l-.49,0,.27-.21L46.63,3h0l.24-.24-.46.11,0,0,.26-.23-.55,0,.18-.19-.45.06h0L46,2.22l-.37,0,.15-.14-.39,0,.18-.2-.45,0,.19-.17-.41,0,.2-.15-.51.08.21-.24-.53,0,.18-.19H44l.29-.18-.68,0,.17-.2L43.27,1l.2-.23L43,.94l.22-.25L42.76.9,43,.61l-.49.22.24-.32-.53.14.13-.22-.47.16L42,.32l-.35.27L41.55.35l-.06.28L41.27.3l-.13.29L40.9.3l-.16.25L40.55.26l0,.27L40.33.3l-.08.35L39.92.32,39.8.63,39.53.37l-.06.24L39.14.37l-.06.3-.32-.3V.63L38.49.39l0,.24L38.1.45,38,.83,37.74.59l0,.31L37.45.65l0,.25L37.14.75l0,.21L36.72.77l-.17.37L36.27.88l0,.34L36.1,1,36,1.26,35.74,1l0,.33-.19-.25.08.39-.3-.25a2,2,0,0,1,.12.33c0,.06-.41-.22-.41-.22l.06.16-.22-.12v.18l-.39-.12c-.61.23-1.17.41-1.69.55a21.14,21.14,0,0,0,2.6.09l.8-.08.12-.2L37,2l.18-.15,1,.15.48-.15H39l.5.15h1.14l.56.27.66.14a1,1,0,0,1,.6.06,2.44,2.44,0,0,0,.66.18l.74.08.32.14.52.37s-.2,0,.62.28.75.22.74.22A1.59,1.59,0,0,0,46.5,4a1.68,1.68,0,0,0,.54.18l.58.14v.32l.28.1c.2.08.56.26.56.26l.3.1.26,0,.33,0-.09-.06Z"/>
<line class="cls-4" x1="4.38" x2="38.34" y1="12.02" y2="12.02"/>
<rect class="cls-2" x="10.15" y="6.5" width="22.67" height="10.49"/>
<text class="cls-5" transform="translate(11.07 13.98)">1.7 - 2 mt
</text>
</g>
</svg>
